<svg width="287" height="235" viewBox="0 0 287 235" fill="none" xmlns="http://www.w3.org/2000/svg">
<path d="M155.795 141.513L168.184 133.88C168.184 133.88 171.392 121.602 174.047 118.173C174.047 118.283 161.326 120.828 155.795 141.513Z" fill="#00555A"/>
<path d="M143.075 156.667L201.59 185.206L215.97 175.472L241.854 183.989L266.521 169.72L168.184 133.88L153.251 143.725L143.075 156.667Z" fill="#E1E1E1"/>
<path d="M173.162 120.053L167.078 122.044C170.175 119.39 177.255 114.633 183.781 113.969H183.892C184.445 113.859 184.887 113.859 185.44 113.859C198.272 113.859 208.891 132.663 210.439 156.888L201.48 164.078C200.042 143.614 189.533 123.04 178.582 123.04C170.95 123.04 170.95 127.022 167.189 138.747L163.981 137.42C166.193 130.119 169.401 124.146 173.162 120.053Z" fill="url(#paint0_linear_3_29375)"/>
<path d="M175.153 112.199L167.963 114.522C171.503 111.315 179.91 105.784 187.542 105.009H187.653C188.206 104.899 188.869 104.899 189.533 104.899C204.577 104.899 216.966 126.911 218.846 155.229L208.448 163.636C206.678 139.632 194.4 115.518 181.569 115.518C172.609 115.518 172.719 120.164 168.184 133.991L164.423 132.442C167.078 123.925 170.728 116.956 175.153 112.199Z" fill="url(#paint1_linear_3_29375)"/>
<path d="M156.57 145.052L167.189 138.526C167.189 138.526 169.844 128.018 172.167 125.142C172.167 125.252 161.326 127.464 156.57 145.052Z" fill="#00555A"/>
<path d="M178.029 111.204C193.736 111.204 206.568 134.101 208.448 163.525L204.134 161.645C202.364 136.756 191.303 117.509 178.029 117.509C168.627 117.509 160.441 127.022 155.795 141.291L151.813 139.632C157.233 122.708 166.967 111.204 178.029 111.204Z" fill="url(#paint2_linear_3_29375)"/>
<g opacity="0.55">
<path opacity="0.55" d="M177.255 111.315C177.476 111.315 177.697 111.315 178.029 111.315C193.736 111.315 206.568 134.212 208.448 163.636L207.121 163.083C205.24 134.101 192.63 111.757 177.255 111.315Z" fill="url(#paint3_linear_3_29375)"/>
<path opacity="0.55" d="M176.813 117.73C177.034 117.73 177.255 117.73 177.587 117.73C168.406 118.062 160.442 127.464 155.906 141.513L154.8 141.07C159.335 127.022 167.521 117.73 176.813 117.73Z" fill="url(#paint4_linear_3_29375)"/>
</g>
<path d="M175.596 119.279C188.98 119.279 200.042 138.747 201.59 163.968L197.829 162.419C196.281 141.181 186.878 124.81 175.596 124.81C167.631 124.81 160.552 132.885 156.57 145.163L153.251 143.725C157.787 129.013 166.083 119.279 175.596 119.279Z" fill="url(#paint5_linear_3_29375)"/>
<g opacity="0.55">
<path opacity="0.55" d="M174.157 119.279C174.6 119.279 175.042 119.168 175.485 119.168C188.869 119.168 199.931 138.637 201.479 163.857L199.82 163.193C198.161 138.415 187.321 119.39 174.157 119.279Z" fill="url(#paint6_linear_3_29375)"/>
<path opacity="0.55" d="M174.047 124.699H174.157C166.746 125.584 160.331 133.438 156.57 144.942L155.242 144.389C159.335 132.553 166.193 124.699 174.047 124.699Z" fill="url(#paint7_linear_3_29375)"/>
</g>
<path d="M159.888 136.867L154.8 138.526C157.344 136.203 163.428 132.221 168.848 131.668H168.959C169.401 131.668 169.844 131.557 170.286 131.557C181.126 131.557 189.976 147.265 191.303 167.618L183.781 173.702C182.564 156.556 173.715 139.19 164.534 139.19C158.118 139.19 158.118 142.508 154.91 152.464L152.145 151.357C154.026 145.274 156.68 140.296 159.888 136.867Z" fill="url(#paint8_linear_3_29375)"/>
<path d="M145.951 157.884L154.91 152.464C154.91 152.464 157.123 143.614 159.114 141.291C159.003 141.291 149.933 143.061 145.951 157.884Z" fill="url(#paint9_linear_3_29375)"/>
<path d="M161.879 136.203C173.052 136.203 182.343 152.574 183.671 173.702L180.573 172.374C179.246 154.565 171.392 140.738 161.879 140.738C155.132 140.738 149.269 147.596 145.951 157.773L143.075 156.556C146.946 144.389 153.915 136.203 161.879 136.203Z" fill="#FFA4E5"/>
<g opacity="0.55">
<path opacity="0.55" d="M160.994 136.535C160.11 136.535 159.225 136.646 158.34 136.867C159.556 136.535 160.663 136.314 161.879 136.314C173.052 136.314 182.343 152.685 183.671 173.812L182.675 173.37C181.237 152.464 172.056 136.535 160.994 136.535Z" fill="url(#paint10_linear_3_29375)"/>
<path opacity="0.55" d="M158.671 141.402C153.362 143.172 148.716 149.366 145.951 157.884L145.176 157.552C148.163 148.813 153.03 142.619 158.671 141.402Z" fill="url(#paint11_linear_3_29375)"/>
</g>
<path d="M199.82 109.323L191.192 115.075C191.192 115.075 184.002 109.766 175.264 110.872C175.264 110.872 181.679 108.881 188.648 112.199L196.059 107.664L199.82 109.323Z" fill="white"/>
<path d="M178.029 135.208L172.167 138.858C172.167 138.858 166.415 135.208 160.773 135.871C160.773 135.871 165.53 134.323 171.061 136.867L176.149 134.101L178.029 135.208Z" fill="white"/>
<path opacity="0.21" d="M214.532 131.557L216.966 146.933V154.233L209.333 159.875L207.232 152.685L208.448 163.636L218.846 155.229C218.846 155.229 217.74 139.411 214.532 131.557Z" fill="#A21822"/>
<path d="M103 210C159.885 210 206 206.642 206 202.5C206 198.358 159.885 195 103 195C46.1147 195 0 198.358 0 202.5C0 206.642 46.1147 210 103 210Z" fill="#CFCFCF"/>
<path d="M233.496 202.75C259.681 202.75 280.909 199.866 280.909 196.309C280.909 192.751 259.681 189.867 233.496 189.867C207.31 189.867 186.083 192.751 186.083 196.309C186.083 199.866 207.31 202.75 233.496 202.75Z" fill="#CFCFCF"/>
<path d="M166.361 234.22C192.546 234.22 213.773 231.336 213.773 227.778C213.773 224.221 192.546 221.337 166.361 221.337C140.175 221.337 118.948 224.221 118.948 227.778C118.948 231.336 140.175 234.22 166.361 234.22Z" fill="#CFCFCF"/>
<path d="M114.954 55.5322C114.954 55.5322 120.691 53.8667 124.855 46.0016C129.019 38.1365 124.578 29.4386 124.578 29.4386L118.656 32.122L113.289 55.2546L114.954 55.5322Z" fill="#511B08"/>
<path d="M157.703 94.1174L156.778 81.3482H151.226L148.08 91.9892L151.689 94.1174H157.703Z" fill="#DA6951"/>
<path d="M143.361 87.4552L152.707 85.6046L151.319 96.8933L148.265 98.3738L144.657 95.783L143.361 87.4552Z" fill="#DA6951"/>
<path d="M80.7178 94.0249C80.7178 94.0249 88.0277 103.833 94.3198 110.958C98.021 115.122 101.445 118.453 102.925 118.36C109.957 117.898 148.265 98.2813 148.265 98.2813L145.026 92.4519C141.325 94.7651 136.236 94.6726 130.314 96.2456C130.314 96.2456 109.68 100.224 108.847 100.41C108.107 100.595 101.167 96.2456 95.06 90.0461C91.4513 86.3449 88.1202 82.7362 86.4547 80.7005C82.1058 75.1487 78.9597 72.5578 78.9597 72.5578L80.7178 94.0249Z" fill="#86B500"/>
<path opacity="0.38" d="M77.572 69.7819L94.32 111.051C98.0213 115.214 101.445 118.545 102.925 118.453C109.958 117.99 148.265 98.3738 148.265 98.3738C148.265 98.3738 109.032 112.531 104.128 110.125C100.057 108.09 95.1528 90.0461 95.1528 90.0461C91.5441 86.3449 88.213 82.7362 86.5475 80.7005C82.1985 75.1487 77.572 69.7819 77.572 69.7819Z" fill="#748B0C"/>
<path d="M141.325 94.395C141.325 94.395 140.77 85.8822 141.788 84.4942C142.806 83.1063 147.34 78.2022 147.802 78.9424C148.172 79.5901 148.08 82.7362 147.155 84.0316C146.229 85.327 145.026 87.1776 145.026 87.1776L146.692 95.783L141.325 94.395Z" fill="#F08364"/>
<path d="M59.8985 181.744L58.6956 179.523C58.6956 179.523 44.5385 186.925 36.0257 190.997C27.5129 195.068 21.4058 197.844 20.388 199.14C19.9254 199.787 23.1639 202.1 23.1639 202.1L59.8985 181.744Z" fill="#952E1D"/>
<path d="M130.037 170.363C130.037 170.363 141.881 178.598 142.806 180.541C143.639 182.484 142.158 188.313 140.4 188.498C138.642 188.684 87.2876 196.826 64.4326 196.549L66.6533 190.072C66.6533 190.072 100.149 174.619 109.217 175.822C123.097 166.476 130.037 170.363 130.037 170.363Z" fill="#F08364"/>
<path d="M105.516 193.125L105.238 195.161L110.698 193.125L111.993 190.442C112.178 189.979 112.456 189.516 112.641 189.054L113.011 188.221C113.659 186.833 114.399 185.167 115.324 183.317L116.435 181.004L116.897 179.893C125.503 161.48 140.215 129.742 140.493 127.058C140.955 123.172 137.161 118.545 137.161 118.545C128.834 117.158 96.263 131.592 96.263 131.592C94.3199 136.311 94.7825 162.22 94.7825 162.22L105.424 153.059L110.605 148.618C110.235 149.081 109.958 149.636 109.587 150.191C105.886 157.316 105.516 188.313 105.516 193.125Z" fill="url(#paint12_linear_3_29375)"/>
<path d="M83.1238 133.258C83.1238 133.258 88.0279 139.087 90.8038 144.084C90.8038 144.084 65.6355 160.462 61.009 166.291C61.009 166.291 58.8808 150.746 60.0837 144.917L65.3579 137.422L83.1238 133.258Z" fill="#3E326C"/>
<path d="M74.981 72.1877C74.981 72.1877 80.9029 78.7574 87.4726 80.0528C87.4726 80.0528 91.5439 81.2557 89.7858 74.2234C89.0456 71.2624 88.5829 68.7641 88.768 67.6537C89.3232 63.6749 91.729 59.1409 91.729 59.1409L89.3232 55.5322L85.5294 49.7953C85.5294 49.7953 75.7212 71.2624 74.981 72.1877Z" fill="#F08364"/>
<path d="M89.7857 74.2234C89.0455 71.2624 88.5829 68.7641 88.7679 67.6537C89.3231 63.6749 91.7289 59.1409 91.7289 59.1409L89.3231 55.5322L85.2518 50.7206L81.1804 59.326L89.7857 74.2234Z" fill="#DA6951"/>
<path d="M82.5686 38.6917C83.0313 42.1153 83.679 46.5567 84.3267 48.3148C85.6221 52.1086 93.4872 62.2869 96.7258 63.5824C101.445 65.433 113.381 59.326 114.307 57.4753C114.862 56.365 115.602 52.8488 116.527 49.4252C117.453 46.0941 123.652 38.5066 124.67 35.083C124.763 34.8979 124.763 34.7129 124.763 34.6203L124.855 34.0651C125.318 30.4564 123.467 24.8121 123.467 24.8121C123.467 24.8121 122.449 24.5345 120.784 24.1644C117.453 23.4241 111.901 22.3138 107.922 22.7764C102 23.5167 90.2486 27.9581 90.2486 27.9581L84.3267 32.4921L82.0134 34.2502C82.0134 34.0651 82.1985 36.1008 82.5686 38.6917Z" fill="url(#paint13_linear_3_29375)"/>
<path d="M82.5686 38.6917C83.0313 42.1153 83.679 46.5568 84.3267 48.3148C85.6221 52.1086 93.4872 62.2869 96.7258 63.5824C96.7258 63.5824 93.0245 60.4363 91.0814 57.4754C88.7681 53.9592 86.9175 36.9336 93.8573 31.4743C99.4091 27.0328 124.762 34.6203 124.762 34.6203L124.855 34.0652L124.022 30.1789L120.691 24.0719C117.36 23.3316 111.438 20.0005 107.552 19.2603C100.705 17.9649 93.0245 17.1321 93.0245 17.1321L84.2341 32.3071L83.3088 34.8054L82.5686 38.6917Z" fill="#F08364"/>
<path d="M108.569 57.938C106.441 58.5857 104.128 59.7886 103.202 59.6036C100.704 59.1409 98.761 53.5891 98.2983 50.9057C98.2983 50.9057 101.629 55.1621 103.017 55.9023C104.498 56.7351 108.569 57.938 108.569 57.938Z" fill="#AE013E"/>
<path d="M106.626 57.938L109.957 58.2156C109.957 58.2156 107.922 57.2903 106.719 57.1978C105.423 57.0127 105.423 56.365 104.498 55.6247C103.573 54.8845 99.0388 51.831 99.0388 51.831C99.0388 51.831 102.555 56.7351 103.85 57.1978C105.146 57.8455 106.626 57.938 106.626 57.938Z" fill="#740129"/>
<path d="M118.193 42.578C118.193 42.578 118.1 41.6527 116.712 41.0975C116.712 41.0975 114.306 41.19 112.548 43.2257L118.193 42.578Z" fill="#DA6951"/>
<path d="M92.7466 38.8767C92.7466 38.8767 97.0955 34.8979 101.815 35.6382C101.815 35.6382 103.85 36.1934 104.22 37.4888C104.22 37.4888 95.8926 36.9336 92.7466 38.8767Z" fill="#DA6951"/>
<path d="M117.73 43.3182C117.73 43.3182 117.638 49.2401 114.307 50.443C114.307 50.443 112.641 50.3505 111.531 48.4999C110.42 46.6493 111.346 44.336 112.641 43.5958C113.844 42.8555 117.73 43.3182 117.73 43.3182Z" fill="#FFFFD8"/>
<path d="M102.925 38.1365C102.925 38.1365 104.776 44.6136 98.7614 46.3717C98.7614 46.3717 96.3556 46.4642 94.505 44.5211C92.4693 42.3004 92.7469 38.8767 92.7469 38.8767C92.7469 38.8767 98.6688 36.2859 102.925 38.1365Z" fill="#FFFFD8"/>
<path d="M122.727 43.7809C122.727 43.7809 115.325 42.763 111.623 44.4286L112.734 42.3004C112.734 42.3004 116.62 41.3751 122.727 43.7809Z" fill="#3F1B08"/>
<path d="M106.904 38.5066C106.904 38.5066 100.242 37.0262 92.7466 38.8768C92.7466 38.8768 100.334 34.1577 106.904 38.5066Z" fill="#3F1B08"/>
<path d="M98.9463 40.6348C98.021 42.763 98.206 44.8912 99.4089 45.4464C100.612 45.909 102.277 44.6136 103.203 42.4854C104.128 40.3572 103.943 38.229 102.74 37.6738C101.537 37.2112 99.8716 38.5066 98.9463 40.6348Z" fill="#3F1B08"/>
<path d="M114.399 45.3538C113.566 47.3895 113.566 49.3327 114.399 49.7028C115.232 50.0729 116.62 48.7775 117.545 46.7418C118.378 44.7061 118.378 42.763 117.545 42.3929C116.712 42.0227 115.232 43.4107 114.399 45.3538Z" fill="#3F1B08"/>
<path d="M93.0244 42.3004C93.0244 42.3004 95.1526 45.909 99.5015 46.5568C99.5015 46.5568 94.1348 46.4642 93.0244 42.3004Z" fill="#3F1B08"/>
<path d="M115.325 50.6281C115.325 50.6281 113.196 50.6281 111.438 48.4999C111.531 48.4999 112.178 51.1833 115.325 50.6281Z" fill="#3F1B08"/>
<path d="M113.289 46.7418C113.289 47.112 113.659 47.297 113.937 47.297C114.307 47.297 114.492 46.9269 114.492 46.6493C114.492 46.2792 114.122 46.0941 113.844 46.0941C113.474 46.0941 113.289 46.4642 113.289 46.7418Z" fill="white"/>
<path d="M98.1138 41.3751C98.1138 41.7452 98.4839 41.9303 98.7615 41.9303C99.1316 41.9303 99.3167 41.5601 99.3167 41.2825C99.3167 40.9124 98.9465 40.7274 98.669 40.7274C98.2988 40.7274 98.1138 41.0049 98.1138 41.3751Z" fill="white"/>
<path d="M114.121 39.9871C114.121 39.9871 118.378 34.5278 121.894 34.0651C125.41 33.695 125.595 35.5456 123.837 37.0261C123.837 37.0261 121.339 35.9157 118.47 37.1186C115.602 38.3215 114.121 39.9871 114.121 39.9871Z" fill="#611B08"/>
<path d="M108.199 33.9726C107.089 33.7876 103.11 30.4565 100.057 29.8088C97.0032 29.2536 94.875 29.2536 94.875 29.2536C94.875 29.2536 99.8716 27.6806 102.092 28.0507C104.313 28.4208 109.217 32.6772 109.957 32.5847C110.698 32.5847 109.31 34.1577 108.199 33.9726Z" fill="#611B08"/>
<path d="M116.157 38.3216C116.157 38.3216 111.993 43.1331 111.438 45.8165C110.883 48.4999 111.993 52.2937 111.993 52.2937C111.993 52.2937 110.328 48.3149 110.883 45.4464C111.438 42.578 115.324 38.5992 115.324 38.5992L116.157 38.3216Z" fill="#984E25"/>
<path d="M105.424 50.0729C105.424 50.0729 104.036 51.1833 104.591 51.4609C105.053 51.7385 105.886 52.2011 106.812 53.2189C107.644 54.2368 110.513 54.3293 111.808 53.0339C111.808 53.0339 110.605 53.9592 108.385 52.5712C106.164 51.1833 104.961 50.9982 104.961 50.9982L105.424 50.0729Z" fill="#DA6951"/>
<path d="M105.608 52.0161C105.608 52.0161 106.071 51.9235 106.626 52.2937C107.181 52.6638 107.181 53.219 107.181 53.219L106.626 52.5713C106.626 52.5713 106.349 52.7563 105.979 52.5713C105.701 52.2937 105.608 52.0161 105.608 52.0161Z" fill="#3F1B08"/>
<path d="M106.071 49.7028L105.701 50.3505C105.701 50.3505 107.366 50.9057 108.199 51.7385C109.124 52.5712 110.975 52.6638 110.975 52.6638C110.975 52.6638 109.217 51.831 108.384 51.3683C107.551 50.8132 106.163 50.258 106.163 50.258L106.071 49.7028Z" fill="#FFCCB3"/>
<path d="M109.957 58.1231C109.957 58.1231 105.701 58.1231 104.035 57.5679C102.37 57.0127 98.2983 50.9982 98.2983 50.9982L98.5759 51.0908C98.5759 51.0908 102.647 56.5501 104.035 57.2903C105.701 58.1231 109.957 58.1231 109.957 58.1231Z" fill="#3F1B08"/>
<path d="M92.8394 26.3851C92.8394 26.3851 90.3411 31.3817 86.7324 34.5278C83.9565 36.9336 84.049 40.7273 84.049 40.7273C84.049 40.7273 81.1806 41.8377 79.6076 37.9514C78.9599 36.1933 79.6076 31.8444 79.9777 29.9013C79.9777 29.9013 88.583 26.8478 92.8394 26.3851Z" fill="#611B08"/>
<path d="M99.6868 50.8132C99.6868 50.8132 97.9287 51.0908 97.0034 51.6459C97.0034 51.6459 97.9287 49.9804 99.6868 50.8132Z" fill="#F08364"/>
<path d="M99.3166 109.015C97.9286 112.624 89.6009 115.214 87.01 116.695C86.6399 116.88 86.4548 117.065 86.2698 117.25C85.5295 118.175 84.2341 121.691 83.5864 124.375C83.3088 125.578 83.1237 126.596 83.2163 127.243C83.3088 128.169 84.3266 129.001 85.1594 129.742C86.1772 130.574 87.01 131.222 86.6399 131.777C85.8996 132.703 81.9208 133.628 80.7179 134.461C80.6254 134.553 80.5329 134.646 80.4403 134.646C79.7926 135.386 75.2586 143.621 72.0201 143.991C68.7815 144.361 64.9878 142.048 64.9878 142.048L64.8952 142.141L59.3434 145.472C59.3434 145.472 55.8272 143.344 55.087 141.586C54.3467 139.827 64.6176 77.7395 76.8317 68.6715C76.8317 68.6715 78.6823 68.2089 80.4403 69.5968C80.6254 69.6894 81.8283 68.8566 81.9208 69.0417C84.2341 71.4474 85.3445 69.1342 87.3801 70.7072C89.4158 72.3728 90.8038 74.4084 90.8038 74.4084C90.8038 74.4084 100.797 104.943 99.3166 109.015Z" fill="#86B500"/>
<path d="M80.2553 103.741C80.2553 103.741 77.1093 105.221 74.8885 103.556C72.7603 101.89 72.2977 80.9781 74.3334 75.9814L80.2553 103.741Z" fill="#F08364"/>
<path d="M102.925 128.909C102.925 128.909 101.075 134.368 101.445 141.956C101.815 149.543 103.666 154.725 103.666 154.725L97.0034 160.462C97.0034 160.462 94.4125 139.087 96.2631 131.777L102.925 128.909Z" fill="#F08364"/>
<path d="M133.368 80.0528L135.774 56.4575L156.778 58.3081L151.504 110.865L129.481 112.438L133.368 80.0528Z" fill="#FFFFAE"/>
<path d="M105.239 194.883L110.698 193.125L111.993 190.442L112.641 189.054L113.011 188.221L115.324 183.317L116.435 181.004L117.73 178.228C117.73 178.228 119.303 166.384 120.136 157.038C120.969 147.693 119.396 136.404 119.396 136.404L110.698 148.618C110.328 149.081 110.05 149.636 109.68 150.191C105.886 157.316 105.609 188.313 105.516 193.125L105.239 194.883Z" fill="url(#paint14_linear_3_29375)"/>
<path d="M144.471 95.5979L144.749 91.3415L145.674 91.434V88.288L143.268 88.0104L142.621 90.9714L143.731 91.249L143.453 95.3203L138.364 95.968L139.567 90.5087L140.492 90.6013L143.083 78.9424H141.695L144.009 67.0985L148.358 67.7462L149.005 91.7116L149.838 91.8041L149.56 96.0606L144.471 95.5979ZM145.582 77.0918L144.009 83.8465L145.674 83.9391L145.582 77.0918Z" fill="#D77011"/>
<path d="M124.855 131.037C124.855 131.037 112.271 147.693 109.957 152.412C107.644 157.131 106.811 163.885 106.811 163.885C106.811 163.885 105.979 144.269 124.855 131.037Z" fill="#DA6951"/>
<path d="M105.979 175.729C105.979 175.729 99.6866 176.932 97.0033 177.95L90.7112 194.791L105.516 193.125L105.979 175.729Z" fill="#DA6951"/>
<path opacity="0.5" d="M137.162 118.731C137.162 118.731 132.998 120.026 133.09 120.859C133.183 121.692 135.311 126.966 136.051 127.428C136.699 127.984 137.717 128.446 137.717 128.446L125.781 157.963C125.781 157.963 139.29 128.909 139.753 126.873C140.308 125.023 137.162 118.731 137.162 118.731Z" fill="white"/>
<path opacity="0.14" d="M61.1016 137.237C61.1941 137.329 62.7671 139.827 64.8953 142.048L64.9878 141.956C64.9878 141.956 68.7816 144.269 72.0202 143.899C75.2587 143.529 79.8853 135.293 80.4404 134.553C80.533 134.461 80.6255 134.368 80.718 134.368C81.3657 132.888 81.8284 131.777 81.9209 131.5C81.6433 131.87 76.4616 138.162 72.0202 139.087C67.6712 140.013 61.4717 137.329 61.1016 137.237Z" fill="#BB318B"/>
<path opacity="0.14" d="M55.087 141.401C55.8272 143.251 59.3434 145.287 59.3434 145.287L64.8952 141.956L64.9878 141.863C64.9878 141.863 68.7815 144.176 72.0201 143.806C75.2586 143.436 79.8852 135.201 80.4403 134.461C80.5329 134.368 80.6254 134.276 80.7179 134.276C81.9208 133.535 85.8996 132.518 86.6399 131.685C87.01 131.222 86.1772 130.482 85.1594 129.649C85.1594 129.649 71.6499 134.553 66.5608 129.557C63.1371 126.318 76.1839 83.8466 80.4403 69.4118C78.6823 67.9313 76.8317 68.4865 76.8317 68.4865C64.6176 77.5545 54.3467 139.642 55.087 141.401Z" fill="#748B0C"/>
<path d="M74.0558 85.5121C74.2409 86.9 74.5184 88.3805 74.9811 90.0461C78.4047 102.815 89.3233 123.172 94.6901 122.524C100.705 121.784 121.894 95.5054 123.189 94.8577C123.93 94.4875 126.613 94.8577 129.111 95.0427C131.147 95.2278 133.09 95.3203 133.83 95.0427C134.016 94.9502 134.293 94.8577 134.478 94.6726C135.774 93.9324 136.884 92.9145 137.069 92.1743C137.254 91.3415 138.55 90.9714 138.364 89.9535C138.272 88.9357 138.272 88.6581 139.012 87.7328C139.752 86.8075 139.752 85.327 139.66 84.5868C139.567 83.8465 139.937 83.2913 140.77 82.181C141.603 81.1631 147.988 75.2412 146.97 74.1308C145.767 72.9279 136.977 79.6827 136.236 79.7752C135.496 79.8677 133.368 79.9602 133.368 79.9602L133.83 75.7038C133.83 75.7038 128.279 78.3872 125.133 79.9602C124.762 80.1453 124.392 80.3304 124.115 80.5154C121.616 81.9034 122.634 84.7718 120.969 89.3058C120.876 89.6759 120.599 90.0461 120.228 90.4162C116.157 95.0427 98.7614 102.63 97.0959 103.37L97.0033 103.463C88.7681 95.3203 83.3088 70.3371 79.9777 69.3192C76.8317 68.4865 72.7604 73.7607 74.0558 85.5121Z" fill="url(#paint15_linear_3_29375)"/>
<path opacity="0.5" d="M74.0559 85.5121L74.9812 90.046C78.4048 102.815 89.3234 123.172 94.6902 122.524C100.705 121.784 121.894 95.5053 123.19 94.8576L120.044 90.6012C115.972 95.2278 98.5765 102.815 96.9109 103.555L96.8184 103.648C87.6579 103.093 74.0559 85.5121 74.0559 85.5121Z" fill="#F08364"/>
<path d="M120.043 90.6012L123.189 94.8576C123.93 94.4875 126.613 94.8576 129.111 95.0427C131.24 95.1352 132.905 95.4128 133.83 95.0427C134.016 94.9502 134.293 94.8576 134.478 94.6726C135.126 94.0249 135.311 92.6369 135.218 91.8967C135.126 90.8788 136.051 88.8432 136.606 88.1029C137.162 87.3627 136.977 85.4195 136.329 84.9569C135.681 84.4017 137.902 81.2557 137.254 81.2557C130.962 81.5333 126.891 80.7005 124.948 80.1453C124.577 80.3304 124.207 80.5154 123.93 80.7005C121.431 82.0884 122.449 84.9569 120.784 89.4909C120.691 89.7685 120.414 90.1386 120.043 90.6012Z" fill="#F08364"/>
<path d="M97.1883 152.042C97.1883 152.042 125.41 165.366 133.645 170.733C142.621 176.562 144.471 179.616 144.471 181.744C144.471 183.872 143.916 187.573 137.717 189.979C131.425 192.385 74.5183 196.271 74.5183 196.271L77.2942 184.057C77.2942 184.057 92.9319 178.135 98.4837 176.932L79.1448 175.822L97.1883 152.042Z" fill="#36245E"/>
<path d="M21.0359 200.62C21.2209 202.378 25.6624 202.748 31.4918 202.008C32.5097 201.915 33.8976 201.73 35.3781 201.638C42.503 201.083 53.6992 200.805 57.2153 200.898C60.9165 200.99 66.931 201.36 67.7638 201.268C68.5966 201.175 65.1729 198.122 65.4505 196.549C65.7281 195.161 67.2086 189.146 67.2086 189.146C67.2086 189.146 67.2086 189.054 67.2086 188.961C66.7459 187.666 61.5642 181.651 59.8987 181.836C58.0481 182.021 47.9623 187.481 41.8552 190.534C35.7482 193.495 20.8508 198.862 21.0359 200.62Z" fill="#590800"/>
<path opacity="0.2" d="M21.0359 200.62C21.2209 202.378 25.6624 202.748 31.4918 202.008C32.5097 201.915 33.8976 201.73 35.3781 201.638C35.3781 201.638 56.9377 185.815 58.9734 185.63C61.009 185.352 67.2086 189.054 67.2086 189.054V188.869C66.7459 187.573 61.5642 181.559 59.8987 181.744C58.0481 181.929 47.9623 187.388 41.8552 190.442C35.7482 193.495 20.8508 198.862 21.0359 200.62Z" fill="#3E00B9"/>
<path d="M117.267 177.395L106.071 180.448L105.239 194.883L110.698 193.125L117.267 177.395Z" fill="#F08364"/>
<path d="M104.591 204.321L105.146 206.634C105.146 206.634 114.676 209.318 127.353 209.225C140.863 209.133 147.432 203.118 147.432 203.118L147.062 201.453L104.591 204.321Z" fill="#952E1D"/>
<path d="M104.868 204.044C105.239 205.339 117.915 207.282 126.983 207.005C136.051 206.727 147.618 202.378 147.34 201.175C147.247 200.898 146.692 200.342 145.859 199.695C143.454 197.937 138.642 195.346 136.421 194.976C133.368 194.513 120.414 193.773 116.99 190.442C116.99 190.442 117.36 183.317 116.157 183.687C114.954 183.965 111.531 184.705 111.068 185.63C110.513 186.555 111.253 190.349 111.253 190.349L105.424 193.218C105.331 193.31 104.498 202.748 104.868 204.044Z" fill="#590800"/>
<path opacity="0.2" d="M104.591 204.321C104.961 205.617 117.638 207.56 126.706 207.282C135.774 207.005 147.34 202.656 147.062 201.453C146.97 201.175 146.415 200.62 145.582 199.972C145.582 199.972 140.585 202.933 131.98 205.061C123.282 207.19 111.438 204.691 111.16 203.859C110.975 203.026 110.698 198.214 111.438 196.364C112.086 194.513 116.712 190.719 116.712 190.719C116.712 190.719 117.082 183.594 115.879 183.965C114.677 184.242 111.253 184.982 110.79 185.908C110.235 186.833 110.975 190.627 110.975 190.627L105.146 193.495C105.053 193.588 104.313 203.026 104.591 204.321Z" fill="#3E00B9"/>
<path opacity="0.14" d="M75.8139 186L68.8741 191.83L67.3936 196.456H65.4504L66.6533 190.072L75.8139 186Z" fill="#BB318B"/>
<path d="M124.392 22.5914L123.744 22.7764L117.267 24.1644L112.733 25.0897L111.53 25.3673L111.16 24.9972L109.495 23.3316L110.142 24.7196L107.089 22.7764L101.074 20.3706L100.889 20.4632L99.1314 21.7586L98.021 22.5914L95.1525 24.7196L92.8393 26.3851L87.6576 31.2892L86.9173 31.937L82.0132 36.5635L79.3298 34.2502C79.3298 34.2502 79.4224 26.015 81.3655 17.5947C81.6431 16.2068 82.0132 14.9113 82.4759 13.6159C82.6609 13.1533 82.7535 12.6906 82.9385 12.228C83.1236 11.7653 83.3086 11.3027 83.4937 10.84C85.3443 6.21348 87.9352 2.3272 91.8215 0.754178C99.3164 -2.2068 114.491 3.53009 122.542 18.335C123.097 19.7229 123.744 21.1109 124.392 22.5914Z" fill="#611B08"/>
<path d="M86.9175 32.6772L90.8038 33.7876C93.117 31.4743 97.0033 25.2748 98.4838 22.7764C98.8539 22.2213 99.039 21.8511 99.1315 21.7586C98.4838 21.8511 97.9286 21.9437 97.2809 22.1287C92.1917 23.7017 88.9532 28.7909 87.6577 31.2892C87.1951 32.122 86.9175 32.6772 86.9175 32.6772Z" fill="#611B08"/>
<path d="M116.157 16.2993C116.157 16.2993 111.068 6.21348 101.907 0.754186L99.8718 0.384064C99.8718 0.384064 109.032 5.6583 116.157 16.2993Z" fill="#511B08"/>
<path d="M158.351 79.4976C157.426 79.4051 151.041 82.366 151.319 83.2914C151.689 84.2167 156.778 83.5689 156.778 83.5689C156.778 83.5689 150.023 85.8822 149.653 87.1776C149.376 88.288 151.411 89.2133 151.411 89.2133C151.411 89.2133 149.468 89.9535 150.764 91.249C152.059 92.5444 156.5 93.0071 156.5 93.0071C156.5 93.0071 152.152 93.6548 152.614 94.7651C153.077 95.8755 158.166 95.3203 159.184 94.9502C160.294 94.4875 159.832 92.2668 160.202 91.3415C160.572 90.5087 161.775 89.4909 160.942 88.1955C160.294 87.1776 161.034 86.1598 160.572 85.0494C160.202 84.1241 158.814 83.8465 158.906 83.1988C158.906 82.2735 159.924 79.6827 158.351 79.4976Z" fill="#F08364"/>
<path d="M151.226 89.0283C151.226 89.0283 154.372 88.6581 157.241 88.288C157.241 88.288 154.095 89.0283 151.226 89.3059V89.0283Z" fill="#DA6951"/>
<path d="M117.175 24.1644C117.175 24.1644 115.694 25.3673 113.103 27.1254C111.993 27.8656 110.79 28.6058 109.402 29.4386C103.295 33.0473 94.1346 37.2112 84.4189 37.8589C84.4189 37.8589 85.2517 35.268 86.9173 32.122C88.0276 30.0863 89.4156 27.7731 91.2662 25.6449C91.6363 25.2747 92.0064 24.8121 92.3766 24.442C94.5973 22.1287 97.3732 20.3706 100.704 19.8154C111.623 17.8723 117.175 24.1644 117.175 24.1644Z" fill="#611B08"/>
<path d="M127.168 41.2826C125.595 48.685 119.951 52.9414 119.581 53.219C119.951 52.7563 126.336 45.539 126.336 41.0975C126.336 39.8946 125.688 38.044 124.763 36.1009C124.022 34.5278 123.004 32.7698 121.987 31.1042C119.673 27.3105 117.268 24.0719 117.268 24.0719C117.268 24.0719 121.617 19.723 124.485 22.5914C124.485 22.5914 125.965 26.2926 126.891 30.9191C127.261 32.6772 127.538 34.5278 127.631 36.471C127.538 38.1365 127.446 39.8021 127.168 41.2826Z" fill="#611B08"/>
<path d="M94.8751 97.356C94.9676 96.9859 95.6153 92.6369 94.8751 91.8967C94.1348 91.1564 91.4514 89.9535 89.3232 87.8253C87.195 85.6971 90.9888 78.8499 90.4336 76.9993C89.8784 75.0561 79.3299 68.8566 79.3299 68.8566C79.3299 68.8566 77.3868 68.579 72.8528 74.3159C68.3188 80.0528 62.8595 100.595 62.3969 102.445C61.9342 104.296 52.2185 106.794 51.6633 106.979C52.0335 106.794 57.4928 104.481 57.4928 102.63C57.4928 100.687 47.7771 92.5444 49.165 91.1564C50.553 89.7685 59.2508 83.9391 59.2508 81.5333C59.2508 79.8677 57.4002 72.0026 56.845 65.9882C56.5674 63.3973 56.5674 61.084 56.9376 59.8811C57.1226 59.4185 57.3077 59.0484 57.5853 58.6782C59.806 55.7173 65.728 55.3471 70.9097 50.258C71.9275 49.2401 72.8528 47.8522 73.7781 46.1866C74.7034 44.6136 75.4437 42.763 76.0914 40.9124C78.4046 34.6203 79.7001 27.9581 79.7001 27.9581L84.7892 36.8411C84.7892 36.8411 83.9565 41.6526 84.4191 46.5568C84.5117 47.6671 84.6967 48.87 84.9743 49.9804C86.3623 55.5322 90.4336 62.3795 92.7469 66.7284C92.9319 67.0985 93.2095 67.4686 93.3946 67.8388C94.0423 69.1342 94.5049 70.0595 94.5049 70.5221C94.5049 70.7072 94.4124 71.0773 94.4124 71.4474C93.7647 74.5935 90.8037 83.1988 90.8037 84.3092C90.8037 85.5121 99.1315 88.5656 99.1315 90.4162C99.0389 91.9892 95.2452 96.8933 94.8751 97.356Z" fill="#611B08"/>
<path d="M121.061 99.2991C121.061 99.2991 100.704 123.357 94.875 123.357C94.1348 123.357 93.3946 123.079 92.5618 122.617C92.5618 122.617 92.4693 122.617 92.4693 122.524C87.4726 119.378 81.4581 108.09 80.1627 105.684C80.1627 105.684 80.1627 105.591 80.0702 105.591C80.0702 105.499 79.9776 105.499 79.9776 105.406C79.9776 105.406 79.8851 105.314 79.8851 105.221C79.8851 105.221 78.2196 105.499 76.554 105.499C74.7959 105.499 72.2051 103 72.2051 88.6581C72.2051 74.3159 75.8138 69.6894 79.2374 68.7641C80.1627 68.4865 81.4581 69.8744 82.8461 72.1877C83.6789 73.4831 84.6042 75.1487 85.4369 76.9993C90.3411 86.9926 95.8929 102.63 96.5406 103.185C97.4659 104.111 116.712 91.6191 117.452 91.0639C118.563 92.1743 119.581 95.0427 120.228 97.0784C120.784 98.2813 121.061 99.2991 121.061 99.2991Z" fill="#8DA213"/>
<path opacity="0.38" d="M121.061 99.2991C121.061 99.2991 100.704 123.357 94.875 123.357C94.1348 123.357 93.3945 123.079 92.5617 122.617C92.5617 122.617 92.4692 122.617 92.4692 122.524C88.2128 119.471 83.5863 111.976 80.1627 105.684C80.1627 105.684 80.1627 105.591 80.0701 105.591C80.0701 105.499 79.9776 105.499 79.9776 105.406C79.9776 105.314 79.9776 105.314 79.8851 105.221C77.2017 100.039 75.2585 95.783 75.166 95.5054C75.6287 96.2456 89.3232 118.268 96.8181 117.528C104.498 116.787 119.211 95.2278 119.211 95.2278L120.228 97.0784C120.784 98.2813 121.061 99.2991 121.061 99.2991Z" fill="#4C6700"/>
<path opacity="0.38" d="M87.0099 116.695C86.6398 116.88 86.4547 117.065 86.2697 117.25C85.5294 118.175 84.234 121.691 83.5863 124.375C77.9419 118.731 76.0913 97.541 76.0913 97.541C79.4224 105.036 82.5684 109.848 87.0099 116.695Z" fill="#748B0C"/>
<path d="M141.788 126.503C141.788 129.186 117.638 179.06 117.638 179.06L109.495 180.818L104.591 181.836C104.591 181.836 104.961 164.811 106.904 157.593C107.367 155.743 107.829 154.447 108.107 153.522C103.943 160.462 90.7113 180.911 79.0524 182.299C68.5039 183.594 61.7492 175.729 60.8239 164.533C60.5463 161.48 62.1193 158.056 64.5251 154.725C66.4683 151.949 69.0591 149.266 71.5574 146.86L72.3902 146.12C77.757 141.215 83.0312 137.607 83.0312 137.607C83.0312 137.607 103.666 125.208 116.805 121.136C130.129 117.065 135.126 117.25 136.791 117.898C138.55 118.545 141.788 123.727 141.788 126.503Z" fill="url(#paint16_linear_3_29375)"/>
<path d="M114.584 14.0786C114.584 14.0786 94.2272 24.3495 80.2551 23.6092L80.0701 24.9046C80.0701 24.9046 98.6687 23.7943 115.324 14.9114L114.584 14.0786Z" fill="#511B08"/>
<path d="M111.715 10.5624C111.715 10.5624 96.1703 12.1354 83.3086 10.84L83.5862 10.1923C83.5862 10.1923 98.1135 11.7653 111.253 10.1923L111.715 10.5624Z" fill="#511B08"/>
<path d="M79.7002 46.8344C79.7002 46.8344 77.2019 52.6638 67.3011 59.6961C61.6567 63.6749 66.1907 76.8142 66.1907 81.3482C66.1907 85.8822 53.8842 91.1564 53.8842 93.2847C53.8842 95.4129 56.1049 100.132 56.1049 100.132L55.0871 98.929C55.0871 98.929 52.5888 93.3772 53.329 92.6369C54.1618 91.8042 65.1729 84.2167 65.2654 81.4408C65.358 78.6648 61.6567 62.6571 64.6177 60.5289C67.6712 58.4007 76.3691 53.404 78.96 46.4642L79.7002 46.8344Z" fill="#511B08"/>
<path d="M92.7468 66.5433C92.7468 66.5433 84.7892 63.1197 80.2552 59.6961C75.7212 56.1799 73.7781 46.0941 73.7781 46.0941L75.5362 40.4497L76.1839 40.8199L84.4191 46.3717C84.5116 47.4821 84.6967 48.6849 84.9743 49.7953C86.3622 55.2546 90.4336 62.1944 92.7468 66.5433Z" fill="#511B08"/>
<path d="M85.8997 39.8946C85.8997 39.8946 83.679 32.5847 77.6645 32.5847C71.65 32.5847 76.2766 46.6493 81.0882 47.3895C85.8997 48.2223 86.2699 43.8734 86.2699 43.8734L85.8997 39.8946Z" fill="#F08364"/>
<path d="M84.327 41.0049C84.327 41.0049 79.793 36.2859 76.4619 36.1008C76.3694 36.1008 80.6258 41.9302 84.327 41.0049Z" fill="#DA6951"/>
<path d="M82.6612 40.4497C82.6612 40.4497 83.0313 43.5032 81.6434 44.2435C80.3479 44.9837 78.4973 42.763 78.4973 42.763C78.4973 42.763 80.1629 44.151 80.9956 43.5032C81.6433 42.9481 81.1807 39.9871 81.1807 39.9871L82.6612 40.4497Z" fill="#DA6951"/>
<path d="M114.584 24.7196C114.584 24.7196 96.7259 36.2859 83.5866 35.5456L83.4016 34.8054C83.309 34.8054 98.2064 33.695 114.584 24.7196Z" fill="#511B08"/>
<path d="M82.0132 59.6961C82.0132 59.6961 84.1414 64.6002 89.2306 67.2836C92.0065 68.7641 89.6007 75.7964 89.6007 75.7964L89.1381 75.4263C89.1381 75.4263 90.2484 70.6147 88.0277 68.394C85.807 66.1732 79.3298 58.2156 79.3298 58.2156L82.0132 59.6961Z" fill="#511B08"/>
<path d="M75.9065 53.219C75.9065 53.219 69.707 59.1409 68.0414 62.472C66.6535 65.2479 69.9846 79.4051 69.9846 79.4051L70.6323 78.0171C70.6323 78.0171 67.5788 65.8956 68.7817 62.472C69.9846 59.0484 76.5543 53.4966 76.5543 53.4966L75.9065 53.219Z" fill="#511B08"/>
<path opacity="0.34" d="M113.104 27.0328C111.993 27.7731 110.79 28.5133 109.402 29.3461C104.961 25.6449 97.0959 28.1432 92.8395 26.2926C92.3769 26.1075 91.8217 25.8299 91.2665 25.4598C88.1204 23.6092 84.0491 20.093 81.3657 17.5947C81.6433 16.2067 82.0134 14.9113 82.4761 13.6159C82.6611 13.1532 82.7537 12.6906 82.9387 12.2279C84.8819 16.5769 88.213 22.7764 92.4694 24.3494C93.3022 24.627 94.1349 24.8121 94.9677 24.7196C95.0602 24.7196 95.1528 24.7196 95.2453 24.7196C104.591 23.7942 109.68 25.2747 113.104 27.0328Z" fill="#BFB681"/>
<path opacity="0.3" d="M127.446 36.3784C126.613 36.2859 125.595 36.1934 124.577 36.1008C123.837 34.5278 122.819 32.7697 121.802 31.1042C124.485 31.2893 125.965 31.1042 126.706 30.8266C127.168 32.6772 127.446 34.5278 127.446 36.3784Z" fill="#BFB681"/>
<path opacity="0.3" d="M94.4125 70.4296C94.4125 70.6147 94.3199 70.9848 94.3199 71.3549C92.5619 70.9848 89.1382 70.2446 85.0669 68.7641C79.1449 66.5433 72.3902 68.4865 69.5218 69.8744C67.0234 71.0773 61.194 70.2446 56.9376 65.8956C56.66 63.3048 56.66 60.9915 57.0301 59.7886C57.2152 59.326 57.4003 58.9558 57.6779 58.5857C58.5106 60.1587 60.2687 62.2869 63.5998 63.1197C69.2442 64.6927 72.0201 62.3795 77.5719 64.9703C81.4582 66.8209 89.1382 67.4686 93.3021 67.6537C93.9498 68.9491 94.4125 69.967 94.4125 70.4296Z" fill="#BFB681"/>
<path d="M109.402 180.818L104.498 181.836C104.498 181.836 104.868 164.811 106.812 157.593C107.274 155.743 109.68 153.429 109.958 152.504C105.794 159.444 90.6187 180.911 78.9599 182.391C68.4114 183.687 61.6567 175.822 60.7314 164.626C60.4538 161.572 62.0268 155.373 64.4326 152.042C64.4326 152.042 64.7102 174.434 74.4259 177.395C90.7113 182.484 116.527 138.717 117.268 137.699C117.082 138.44 107.089 166.014 109.402 180.818Z" fill="#3E326C"/>
<path opacity="0.5" d="M141.788 126.503C141.788 126.503 136.791 116.232 115.417 123.357C98.1136 129.186 72.2976 146.397 71.5574 146.952L72.3901 146.212C77.7569 141.308 83.0312 137.699 83.0312 137.699C83.0312 137.699 103.665 125.3 116.805 121.229C130.129 117.158 135.126 117.343 136.791 117.99C138.549 118.545 141.788 123.727 141.788 126.503Z" fill="#FFFFAE"/>
<path opacity="0.5" d="M117.545 91.0639C116.712 91.6191 98.5764 105.684 96.6332 105.684C94.2274 105.684 83.3088 73.113 82.9387 72.1877L85.5296 76.9993C90.4337 86.9926 95.9855 102.63 96.6332 103.185C97.5585 104.018 116.805 91.5266 117.545 91.0639Z" fill="#FFFFAE"/>
<path d="M198.887 172.22C200.149 172.22 201.831 172.115 202.252 172.009C201.516 172.115 197.73 172.746 197.414 173.061C196.994 173.377 197.835 174.008 198.466 174.113C198.992 174.218 199.623 174.323 199.623 174.323C199.623 174.323 199.412 175.164 200.359 175.375C201.305 175.585 203.619 175.795 204.881 175.585C206.143 175.375 206.143 175.375 206.143 175.375C206.143 175.375 203.303 176.952 203.409 177.688C203.514 178.004 205.407 177.793 206.458 177.583C207.51 177.268 210.139 174.954 210.77 174.533C211.086 174.323 211.717 173.797 212.558 173.166C213.61 172.325 214.661 171.589 214.977 171.589C215.503 171.694 230.541 168.118 232.118 166.962C233.696 165.91 238.954 160.967 238.954 160.967C238.954 160.967 234.853 155.709 229.384 154.657C229.384 154.657 227.912 155.604 226.019 156.761C224.441 157.812 222.549 158.969 220.866 160.126C217.606 162.334 210.875 167.487 209.929 167.277C208.982 167.067 207.615 165.594 205.407 165.7C203.198 165.805 200.569 164.753 200.043 165.174C199.518 165.489 200.885 167.382 202.672 167.803C204.671 168.118 205.302 168.434 205.302 168.434C205.302 168.434 201.516 169.591 199.518 170.011C197.519 170.432 196.573 170.853 196.573 171.168C196.573 171.484 197.414 172.325 198.887 172.22Z" fill="#F08364"/>
<path d="M232.119 167.067C232.119 167.067 228.122 162.439 224.336 154.763C224.336 154.763 230.541 152.344 233.275 151.292C236.01 150.24 239.585 149.925 239.585 149.925L236.956 158.864L232.119 167.067Z" fill="#7C44FF"/>
<path opacity="0.34" d="M237.376 151.923L228.543 161.914C228.543 161.914 230.225 164.543 231.698 166.331L233.17 165.489L237.376 151.923Z" fill="#BB318B"/>
<path d="M200.149 179.055C200.254 181.159 200.99 183.788 201.831 185.576C203.724 189.782 207.089 190.623 208.351 190.623C208.562 190.623 208.982 190.623 209.508 190.623C212.137 190.518 217.921 190.203 222.549 189.467C228.227 188.52 232.119 187.048 237.061 187.679C241.794 188.31 252.941 187.363 253.993 187.258C254.098 187.258 254.098 187.258 254.098 187.258C253.993 187.048 252.836 183.893 251.469 182.631C250.943 182.105 249.155 180.948 246.736 179.581C242.425 177.268 236.22 174.533 232.119 174.533C231.593 174.533 231.067 174.533 230.436 174.639C223.916 175.69 213.925 182.105 212.663 182.105C211.296 182.105 203.304 174.954 201.2 176.006C200.359 176.321 200.044 177.583 200.149 179.055Z" fill="url(#paint17_linear_3_29375)"/>
<path d="M207.931 187.469C208.036 189.572 208.772 192.201 209.614 193.989C211.506 198.195 214.872 199.037 216.134 199.037C216.344 199.037 216.765 199.037 217.29 199.037C219.92 198.931 225.704 198.616 230.331 197.88C236.01 196.933 239.901 195.461 244.843 196.092C249.576 196.723 260.723 195.777 261.775 195.671C261.88 195.671 261.88 195.671 261.88 195.671C261.775 195.461 260.618 192.306 259.251 191.044C258.725 190.518 256.937 189.361 254.519 187.994C250.207 185.681 244.002 182.946 239.901 182.946C239.375 182.946 238.849 182.946 238.218 183.052C231.698 184.103 221.707 190.518 220.445 190.518C219.078 190.518 211.086 183.367 208.983 184.419C208.141 184.734 207.826 185.996 207.931 187.469Z" fill="url(#paint18_linear_3_29375)"/>
<path opacity="0.75" d="M207.931 187.469C207.931 187.469 213.504 188.205 215.713 190.413C217.921 192.622 219.394 197.775 217.29 199.037C219.919 198.931 225.703 198.616 230.331 197.88C236.01 196.933 239.901 195.461 244.843 196.092C249.576 196.723 260.723 195.777 261.775 195.671C261.88 195.671 261.88 195.671 261.88 195.671L254.518 187.994C250.207 185.681 244.002 182.946 239.901 182.946C239.375 182.946 238.849 182.946 238.218 183.052C239.48 183.788 240.742 184.734 241.794 185.786C244.738 188.731 246.631 192.622 246.21 193.042C245.79 193.463 234.222 192.937 231.803 194.094C229.384 195.251 220.55 190.623 220.55 190.623C219.183 190.623 211.191 183.472 209.088 184.524C208.141 184.734 207.826 185.996 207.931 187.469Z" fill="url(#paint19_linear_3_29375)"/>
<path d="M236.641 183.262C237.061 183.157 240.216 182.841 245.474 184.314C246.842 184.734 248.209 185.47 249.576 186.417C253.993 189.572 258.83 194.83 265.035 196.933C273.238 199.668 286.278 195.04 286.278 195.04C283.754 191.149 280.704 187.363 277.865 184.103C273.343 178.95 269.557 175.27 269.557 175.27L236.641 183.262Z" fill="url(#paint20_linear_3_29375)"/>
<path opacity="0.41" d="M252.31 183.052C252.31 183.052 266.192 187.679 270.819 188.31C275.446 188.941 276.708 182.841 276.708 182.841L269.557 175.375L252.31 183.052Z" fill="#BB318B"/>
<path d="M234.011 184.103C234.011 184.103 236.22 183.052 240.742 182.526C241.688 182.421 242.95 182.421 244.423 182.526C248.524 182.736 253.782 183.472 257.463 182.526C262.406 181.159 273.027 172.851 273.027 172.851C273.027 172.851 265.455 170.327 261.354 166.856C260.408 166.12 259.671 165.279 259.251 164.438C259.251 164.438 259.251 164.332 259.146 164.332C256.832 159.705 254.413 148.032 254.413 148.032L243.581 148.873L238.639 149.294C238.639 149.294 238.428 149.715 238.113 150.451C236.746 153.501 232.96 162.124 232.224 167.067C230.751 177.057 234.011 184.103 234.011 184.103Z" fill="#9A6FFF"/>
<path d="M254.308 148.032C254.308 148.032 244.212 153.185 239.69 152.028C237.061 151.292 238.533 149.399 238.533 149.399L254.308 148.032Z" fill="#DA6951"/>
<path opacity="0.34" d="M234.748 176.742C234.748 176.742 240.426 177.899 247.052 177.899C253.677 177.899 258.094 177.373 256.622 172.22C255.149 167.067 253.572 159.6 253.572 159.6L237.166 167.067L234.748 176.742Z" fill="#BB318B"/>
<path d="M209.613 184.314C210.875 184.103 212.453 183.683 212.873 183.472C212.242 183.788 208.562 185.05 208.351 185.365C208.036 185.681 208.982 186.207 209.508 186.207C210.034 186.207 210.665 186.207 210.665 186.207C210.665 186.207 210.665 187.048 211.611 187.048C212.558 187.048 214.977 186.838 216.133 186.522C217.29 186.101 217.29 186.101 217.29 186.101C217.29 186.101 214.766 188.205 214.977 188.836C215.082 189.151 216.975 188.625 217.921 188.205C218.868 187.784 221.076 185.05 221.602 184.419C221.812 184.208 222.443 183.472 223.074 182.736C223.916 181.79 224.862 180.738 225.178 180.738C225.703 180.738 239.901 174.533 241.268 173.166C242.635 171.799 246.947 166.015 246.947 166.015C246.947 166.015 242.004 161.493 236.43 161.493C236.43 161.493 235.168 162.65 233.486 164.227C232.118 165.489 230.436 167.067 229.069 168.434C226.334 171.168 220.55 177.373 219.604 177.373C218.657 177.373 216.975 176.111 214.871 176.637C212.768 177.162 209.929 176.531 209.508 177.057C209.087 177.478 210.665 179.161 212.558 179.161C214.556 179.161 215.292 179.266 215.292 179.266C215.292 179.266 211.717 181.054 209.824 181.79C207.931 182.526 207.089 183.157 207.089 183.472C207.195 183.893 208.141 184.629 209.613 184.314Z" fill="#FFB497"/>
<path d="M223.179 182.736C224.021 181.79 224.967 180.738 225.283 180.738C225.809 180.738 240.006 174.533 241.373 173.166C242.74 171.799 247.052 166.015 247.052 166.015C247.052 166.015 242.109 161.493 236.535 161.493C236.535 161.493 235.273 162.65 233.591 164.227C233.591 164.227 238.744 169.485 238.744 171.589C238.744 173.692 224.126 179.897 223.916 180.212C223.705 180.528 223.179 182.736 223.179 182.736Z" fill="#F08364"/>
<path d="M209.613 184.314C209.613 184.314 213.083 183.367 213.714 183.157C214.24 182.946 215.713 182.526 215.713 182.526C215.713 182.526 212.873 183.788 212.032 183.998C211.296 184.314 209.613 184.314 209.613 184.314Z" fill="#F08364"/>
<path d="M210.455 186.207C210.455 186.207 213.715 185.681 214.241 185.576C214.766 185.47 216.133 184.945 216.133 184.945C216.133 184.945 214.766 185.681 213.925 185.996C213.084 186.207 210.77 186.627 210.77 186.627L210.455 186.207Z" fill="#F08364"/>
<path d="M251.469 150.766C254.624 152.449 253.572 167.487 252.625 171.063C252.625 171.063 249.26 169.591 244.843 168.329C240.426 167.067 235.904 164.227 233.486 164.227C233.38 164.227 243.897 146.665 251.469 150.766Z" fill="#B393FF"/>
<path opacity="0.23" d="M238.008 150.451V149.82L238.954 156.655C238.954 156.655 245.474 157.812 248.419 161.703C250.838 164.963 257.042 165.069 259.04 164.332C256.727 159.705 254.308 148.032 254.308 148.032L243.476 148.873L238.323 149.82L238.008 150.451Z" fill="#BB318B"/>
<path d="M277.654 151.818C277.654 151.818 274.079 153.395 273.237 153.395C272.291 153.395 264.614 148.663 264.614 148.663C264.614 148.663 276.708 147.717 277.654 148.663C278.601 149.609 278.706 150.556 278.496 150.766C278.285 150.977 277.654 151.818 277.654 151.818Z" fill="url(#paint21_linear_3_29375)"/>
<path d="M266.191 147.927L275.867 158.969L274.079 162.229L266.191 149.925V147.927Z" fill="url(#paint22_linear_3_29375)"/>
<path d="M266.823 147.611C266.823 147.611 267.349 150.871 266.823 152.975C266.823 152.975 271.029 157.076 271.029 160.862C271.029 164.543 269.768 164.858 269.768 164.858C269.768 164.858 269.031 169.591 266.823 169.591C264.614 169.591 263.878 166.225 263.878 166.225C263.878 166.225 259.777 165.384 259.356 161.493C259.356 161.493 255.991 155.604 257.989 153.08C257.989 153.08 254.308 150.871 255.57 147.506L257.358 148.242L259.987 148.558C259.987 148.558 260.723 151.713 259.987 152.554C259.987 152.554 262.196 157.181 261.354 160.757C261.354 160.757 262.406 160.441 263.247 161.283C264.194 162.229 264.089 165.069 264.089 165.069C264.089 165.069 265.14 163.912 266.613 163.912C268.085 163.912 268.716 164.438 268.716 164.438C268.716 164.438 266.718 160.652 266.297 157.812C265.876 154.973 266.087 153.606 266.087 153.606C266.087 153.606 264.089 152.449 262.827 150.03C261.565 147.611 266.823 147.611 266.823 147.611Z" fill="#A11508"/>
<path d="M224.441 141.091C224.862 142.669 228.227 147.717 232.749 149.609C234.011 150.135 235.378 150.556 236.746 150.871C240.111 151.713 243.897 151.818 248.419 151.397C254.834 150.661 258.304 146.034 259.356 145.508C260.407 144.982 262.826 137.305 262.826 137.305L243.266 109.121L236.851 109.542C236.851 109.542 233.275 114.274 230.856 118.481C229.7 120.479 228.753 122.372 228.648 123.529C228.122 127.21 227.596 133.099 226.439 135.307C225.283 137.621 224.126 139.619 224.441 141.091Z" fill="#FFB497"/>
<path d="M230.857 118.481L231.383 120.9L237.377 115.01C237.377 115.01 250.943 136.464 253.467 138.988C255.991 141.512 250.943 149.294 246.211 150.451C241.583 151.502 237.061 150.871 236.746 150.871C240.111 151.713 243.897 151.818 248.419 151.397C254.834 150.661 258.304 146.034 259.356 145.508C260.408 144.982 262.827 137.305 262.827 137.305L243.266 109.121L236.851 109.542C236.851 109.542 233.275 114.274 230.857 118.481Z" fill="#F08364"/>
<path d="M239.69 146.455C239.69 146.455 234.642 150.451 230.226 147.086C230.226 147.086 230.751 146.455 229.489 143.405C229.384 143.51 233.17 146.455 239.69 146.455Z" fill="#3F1B08"/>
<path d="M248.839 132.783C248.839 132.783 244.948 130.364 242.74 129.523C242.74 129.523 240.111 130.995 239.269 134.781C238.533 138.252 239.48 139.619 241.057 140.671C242.635 141.722 246.421 142.143 247.998 141.512C249.681 140.881 252.205 138.462 250.627 134.992C249.681 132.994 248.839 132.783 248.839 132.783Z" fill="#FFFFD8"/>
<path d="M231.382 134.361C231.382 134.361 229.384 136.779 228.227 135.623C227.071 134.466 227.702 126.999 228.543 125.317C228.543 125.317 230.331 126.368 231.382 128.682C232.644 130.995 232.013 133.835 231.382 134.361Z" fill="#FFFFD8"/>
<path d="M252.205 136.779C252.205 136.779 246.947 130.364 239.48 128.682C239.48 128.682 248.103 128.366 252.205 136.779Z" fill="#3F1B08"/>
<path d="M239.48 139.303C239.48 139.303 243.581 142.353 248.524 141.512C248.524 141.512 242.319 143.825 239.48 139.303Z" fill="#3F1B08"/>
<path d="M227.702 133.309C227.702 133.309 227.702 135.938 229.595 135.938C229.595 135.938 226.966 137.305 227.702 133.309Z" fill="#3F1B08"/>
<path d="M239.691 133.73C239.06 136.043 240.006 138.357 241.899 138.988C243.792 139.514 245.895 138.041 246.526 135.728C247.157 133.414 246.211 131.101 244.318 130.47C242.425 129.944 240.427 131.416 239.691 133.73Z" fill="#3F1B08"/>
<path d="M227.597 129.313C227.386 131.311 228.017 133.099 228.964 133.204C229.91 133.309 230.962 131.732 231.172 129.733C231.383 127.735 230.752 125.948 229.805 125.842C228.859 125.737 227.807 127.315 227.597 129.313Z" fill="#3F1B08"/>
<path d="M246 137.831C246.523 137.831 246.947 137.407 246.947 136.885C246.947 136.362 246.523 135.938 246 135.938C245.477 135.938 245.054 136.362 245.054 136.885C245.054 137.407 245.477 137.831 246 137.831Z" fill="white"/>
<path d="M229.7 132.047C229.7 132.573 230.12 132.888 230.541 132.888C230.962 132.888 231.382 132.468 231.382 132.047C231.382 131.521 230.962 131.206 230.541 131.206C230.12 131.206 229.7 131.626 229.7 132.047Z" fill="white"/>
<path d="M228.858 122.162C228.858 122.162 229.594 121.005 230.12 121.005C230.646 121.005 232.644 124.055 233.17 127.525C233.17 127.525 232.644 121.215 231.067 119.638C229.489 118.165 228.858 122.162 228.858 122.162Z" fill="#3F1B08"/>
<path d="M235.905 138.883C235.905 138.883 235.589 140.46 234.958 140.25C234.327 140.04 233.065 139.198 231.172 138.672C229.279 138.147 228.543 136.779 228.543 136.779C228.543 136.779 228.754 139.409 229.805 140.04C230.857 140.671 231.383 140.25 232.75 140.355C234.117 140.46 234.748 140.986 235.379 140.565C236.01 140.355 235.905 138.883 235.905 138.883Z" fill="#DA6951"/>
<path d="M231.277 139.934C231.487 139.198 234.432 140.565 234.432 140.565H233.275C233.275 140.46 230.962 140.986 231.277 139.934Z" fill="#3F1B08"/>
<path d="M228.858 136.674C228.858 136.674 232.329 135.412 233.485 131.837C234.537 128.577 232.644 125.001 232.644 125.001C232.644 125.001 233.801 128.682 233.065 131.837C232.329 134.992 228.858 136.674 228.858 136.674Z" fill="#984E25"/>
<path opacity="0.37" d="M231.487 146.034C231.487 146.034 232.539 146.034 233.591 145.929L238.744 146.77C238.744 146.77 237.061 147.822 234.958 148.137C232.118 148.558 230.541 147.086 230.541 147.086L231.487 146.034Z" fill="#DA3651"/>
<path d="M229.595 143.931C229.595 143.931 230.436 145.298 230.962 145.718C231.383 146.139 233.591 146.77 235.905 146.139C235.905 146.244 231.593 145.508 229.595 143.931Z" fill="#FFFFD8"/>
<path d="M227.176 141.091C227.176 141.091 228.438 142.774 231.277 144.456C234.117 146.034 239.375 146.455 239.375 146.455V146.665C239.375 146.665 233.801 146.244 231.277 144.982C228.858 143.931 227.176 141.091 227.176 141.091Z" fill="#984E25"/>
<path d="M238.113 145.613C238.008 145.193 240.742 147.086 240.427 147.401C240.216 147.611 238.323 146.349 238.113 145.613Z" fill="#F08364"/>
<path d="M220.025 150.871C220.025 150.871 219.499 136.779 224.442 129.944C226.966 126.473 230.752 121.215 233.907 116.798C234.117 116.588 234.222 116.272 234.432 116.062C236.115 113.749 237.587 111.75 238.534 110.488C239.165 109.647 239.48 109.121 239.585 109.016C239.375 109.226 236.536 111.856 233.17 115.431C232.645 115.957 232.224 116.483 231.698 117.114C230.121 118.902 228.543 120.795 227.071 122.793C225.599 124.791 224.337 126.789 223.39 128.682C218.868 137.305 220.025 150.871 220.025 150.871Z" fill="#A11508"/>
<path d="M242.951 121.11C242.951 121.11 248.524 126.158 250.838 128.366C250.838 128.366 244.738 126.158 244.002 124.686C243.266 123.213 242.951 121.11 242.951 121.11Z" fill="#3F1B08"/>
<path d="M226.44 125.001C226.44 125.001 228.964 121.11 231.908 117.219C232.329 116.693 232.75 116.167 233.17 115.641C235.063 113.328 236.956 111.33 238.428 110.594C238.849 110.383 239.165 110.278 239.48 110.278C239.48 110.278 240.847 113.433 242.74 117.64C243.371 118.902 244.002 120.269 244.633 121.636C244.738 121.846 244.843 122.057 244.949 122.267C247.578 127.63 250.733 133.309 253.046 135.728C258.094 140.776 261.775 140.565 261.775 140.565L268.505 139.303C268.505 139.303 271.976 134.571 274.289 128.366C275.025 126.473 275.656 124.37 275.972 122.267C276.287 120.479 276.393 118.691 276.287 117.009C276.077 114.38 275.341 111.75 273.658 109.437C267.033 100.077 243.792 101.865 235.694 108.07C233.486 109.752 231.803 111.75 230.541 113.749C230.12 114.485 229.7 115.221 229.279 115.957C227.912 118.691 227.071 121.215 226.65 122.898C226.545 124.16 226.44 125.001 226.44 125.001Z" fill="#A11508"/>
<path d="M232.434 131.732C232.434 131.732 231.172 126.894 226.44 123.424C226.44 123.529 232.434 125.317 232.434 131.732Z" fill="#3F1B08"/>
<path d="M235.905 137.726C235.905 137.726 235.168 139.198 234.958 139.303C234.748 139.514 232.96 138.778 231.698 138.462C230.436 138.147 229.595 136.779 229.595 136.779C229.595 136.779 230.857 137.936 232.013 138.147C233.275 138.357 234.222 138.778 234.432 138.567C234.748 138.252 235.905 137.726 235.905 137.726Z" fill="#FFCCB3"/>
<path d="M263.983 148.032C263.983 148.032 276.393 144.456 277.865 144.456C279.337 144.456 279.548 150.24 279.232 150.556C278.917 150.871 277.655 151.713 277.655 151.713C277.655 151.713 278.706 150.346 278.075 149.715C277.444 149.084 263.983 148.558 263.983 148.558V148.032Z" fill="url(#paint23_linear_3_29375)"/>
<path opacity="0.27" d="M239.48 110.278C239.48 110.278 250.312 103.337 261.985 103.337C261.985 103.337 248.103 105.02 239.69 110.804L239.48 110.278Z" fill="#6A2808"/>
<path opacity="0.27" d="M241.373 114.59C241.373 114.59 255.991 123.949 276.077 123.003L275.867 124.055C275.867 124.055 253.257 123.529 241.899 115.326L241.373 114.59Z" fill="#6A2808"/>
<path opacity="0.27" d="M243.687 119.533C243.687 119.533 255.57 131.311 271.66 134.466L271.345 134.992C271.345 134.992 254.624 130.995 244.213 120.584L243.687 119.533Z" fill="#6A2808"/>
<path opacity="0.27" d="M244.948 122.267C247.577 127.63 250.732 133.309 253.046 135.728C258.094 140.776 261.774 140.565 261.774 140.565L268.505 139.303C268.505 139.303 271.975 134.571 274.289 128.366C274.289 128.366 263.142 130.049 254.728 127.315C250.732 125.948 247.367 123.949 244.948 122.267Z" fill="#6A2808"/>
<path d="M258.515 141.407C258.515 141.407 264.614 136.043 270.188 138.988C275.762 141.932 263.563 151.923 258.304 150.346C254.729 149.189 256.201 144.982 256.201 144.982L258.515 141.407Z" fill="#F08364"/>
<path d="M259.461 143.3C259.461 143.3 265.981 141.091 269.136 142.563C269.136 142.458 262.406 145.824 259.461 143.3Z" fill="#DA6951"/>
<path d="M261.249 143.51C261.249 143.51 259.461 146.139 260.303 147.506C261.144 148.873 263.878 147.611 263.878 147.611C263.878 147.611 261.67 148.137 261.249 147.086C260.828 146.244 262.826 143.72 262.826 143.72L261.249 143.51Z" fill="#DA6951"/>
<path opacity="0.27" d="M239.48 110.278V105.966L238.323 106.492L239.48 110.278Z" fill="#6A2808"/>
<path d="M242.74 117.64C243.371 118.902 244.002 120.269 244.633 121.636C245.895 122.056 247.262 122.162 248.419 121.741C252.205 120.269 255.885 118.481 259.987 119.322C262.195 119.848 268.926 123.529 271.976 123.003C273.448 122.793 274.92 122.477 276.077 122.162C276.392 120.374 276.498 118.586 276.392 116.903C273.132 118.165 267.769 119.953 264.193 119.322C258.62 118.271 255.044 117.429 250.627 118.481C248.209 119.007 245.474 118.376 242.74 117.64Z" fill="#FFCCB3"/>
<path d="M229.489 115.852C229.91 116.378 230.646 117.009 231.487 117.114C231.593 117.114 231.698 117.114 231.908 117.114C232.224 117.114 232.434 117.114 232.749 117.009C233.17 116.903 233.485 116.798 233.801 116.798C234.011 116.588 234.116 116.272 234.327 116.062C233.906 115.957 233.485 115.747 233.17 115.536C233.065 115.536 233.065 115.431 232.96 115.431C232.013 114.905 231.277 114.169 230.646 113.643C230.225 114.485 229.805 115.221 229.489 115.852Z" fill="#FFCCB3"/>
<path d="M261.985 103.337L265.981 99.0256C265.981 99.0256 261.88 100.393 260.934 103.232L261.985 103.337Z" fill="#A11508"/>
<path d="M260.197 103.127L259.251 98.6049C259.251 98.6049 257.884 102.286 258.725 103.127H260.197Z" fill="#A11508"/>
<path opacity="0.34" d="M249.576 186.417C253.993 189.572 258.83 194.83 265.035 196.933C273.238 199.668 286.278 195.04 286.278 195.04C283.754 191.149 280.704 187.363 277.865 184.103C277.865 184.103 281.966 192.096 283.123 193.358C283.123 193.358 273.343 197.144 267.559 195.882C262.195 194.725 250.417 186.943 249.576 186.417Z" fill="#BB318B"/>
<path d="M239.691 157.392L236.115 162.86C236.115 162.86 238.744 164.017 243.477 166.751C248.209 169.38 252.31 170.116 252.31 170.116C252.31 170.116 248.314 169.696 243.161 167.382C238.113 165.069 234.222 163.701 234.222 163.701L239.691 157.392Z" fill="white"/>
<path opacity="0.23" d="M241.373 179.476L244.318 182.526C248.419 182.736 253.677 183.472 257.358 182.526C262.301 181.159 272.922 172.851 272.922 172.851C272.922 172.851 265.35 170.327 261.249 166.856C263.037 168.855 265.876 171.484 268.611 172.851C268.611 172.851 263.878 179.161 263.878 178.53C263.878 177.899 260.618 175.164 260.408 174.954L262.511 179.161C262.511 179.161 260.303 181.474 255.15 181.79C249.996 182.105 245.369 181.79 245.369 181.79L241.373 179.476Z" fill="#BB318B"/>
<path d="M262.301 131.837C261.459 131.626 253.362 136.779 253.256 137.726C253.151 139.093 257.042 141.617 257.989 140.986C259.041 140.46 263.142 132.047 262.301 131.837ZM255.255 137.621C255.465 137.095 260.408 132.994 261.144 133.204C261.88 133.414 258.199 139.409 257.673 139.724C257.148 140.04 254.939 138.147 255.255 137.621Z" fill="#6A0708"/>
<path d="M262.406 132.047C261.564 131.837 253.467 136.99 253.361 137.936C253.256 139.303 257.147 141.827 258.094 141.196C259.145 140.671 263.247 132.257 262.406 132.047ZM255.36 137.831C255.57 137.305 260.513 133.204 261.249 133.414C261.985 133.625 258.304 139.619 257.778 139.934C257.358 140.25 255.149 138.357 255.36 137.831Z" fill="url(#paint24_linear_3_29375)"/>
<path d="M192.707 218.037C191.418 221.15 188.09 225.445 183.688 228.344C182.829 228.988 181.863 229.525 180.897 230.061C175.744 233.068 170.376 235 165.115 235C160.069 235 154.701 234.248 150.836 233.819C146.971 233.282 140.422 231.242 139.455 227.699C138.489 224.157 141.71 215.675 141.71 215.675L148.796 214.387L174.67 214.709C174.67 214.709 175.851 214.279 177.783 213.742C180.897 212.991 185.621 212.025 189.271 212.776C190.774 213.098 192.062 213.635 193.029 214.601C193.458 215.246 193.351 216.427 192.707 218.037Z" fill="#772A2C"/>
<path opacity="0.65" d="M192.707 218.037C191.419 221.15 188.09 225.445 183.689 228.344C182.83 228.988 181.863 229.525 180.897 230.061C181.327 229.632 187.554 222.117 185.514 218.252C183.689 214.709 181.541 214.923 181.541 214.923H178.32L177.784 213.957C180.897 213.206 185.621 212.239 189.271 212.991L192.707 218.037Z" fill="#5E191B"/>
<path d="M197.86 228.666C197.86 228.666 197.216 227.807 198.505 227.377C197.324 226.841 194.317 225.445 193.351 223.942C192.385 222.439 192.385 220.614 192.385 220.614C191.955 220.292 186.48 216.319 183.152 212.347C182.4 211.488 181.756 210.629 181.327 209.77C180.253 207.838 179.609 204.939 179.287 202.362C178.965 200.322 178.857 198.497 178.857 197.209C178.857 196.779 178.857 196.457 178.857 196.243C178.857 196.028 178.857 195.921 178.857 195.921C178.857 195.921 178.857 195.921 178.965 195.921C179.716 196.135 184.762 197.853 187.876 199.249C188.627 199.571 188.305 198.927 188.735 199.249C188.735 199.249 189.594 201.181 189.594 202.04C189.594 203.006 189.916 203.973 190.023 204.402C190.345 205.368 191.311 206.12 192.385 209.341C193.459 212.562 194.532 215.46 195.284 216.212C196.035 216.963 201.296 218.252 202.047 219.218C203.014 220.614 202.906 221.902 201.511 222.117C201.296 222.653 201.189 222.868 201.189 222.868L200.652 225.23C200.652 225.23 201.081 226.411 201.081 227.377C200.866 228.666 197.86 228.666 197.86 228.666Z" fill="url(#paint25_linear_3_29375)"/>
<path d="M192.385 220.614C191.955 220.292 186.48 216.319 183.152 212.347C182.4 211.488 181.756 210.629 181.327 209.77C179.072 205.69 178.857 197.96 178.857 196.243L178.965 195.921C179.931 196.243 186.91 196.779 189.057 198.39C189.057 198.39 189.701 203.651 190.023 204.617C190.023 204.617 186.051 211.058 186.051 212.669C185.943 214.279 191.955 220.292 192.385 220.614Z" fill="#E1784E"/>
<path d="M180.468 207.945C179.716 205.798 178.857 198.497 178.857 197.316L179.394 196.243L187.768 199.463C188.52 199.786 188.305 197.96 188.735 198.282C188.735 198.282 189.486 201.396 189.486 202.255C189.486 202.255 183.045 206.549 180.468 207.945Z" fill="#3F0800"/>
<path d="M200.545 225.552C200.545 225.552 199.578 224.801 199.149 224.479C199.149 224.479 200.652 224.908 200.545 225.23C200.545 225.552 200.545 225.552 200.545 225.552Z" fill="#E1784E"/>
<path d="M200.866 223.942C200.866 223.942 200.437 222.976 200.115 222.653C200.115 222.653 200.759 223.083 200.974 223.62L200.866 223.942Z" fill="#E1784E"/>
<path d="M201.296 222.761C201.296 222.761 201.296 221.687 201.081 221.15C200.866 220.614 200.544 220.292 200.544 220.292C200.544 220.292 201.188 220.828 201.296 221.365C201.403 221.795 201.403 222.546 201.403 222.546L201.296 222.761Z" fill="#E1784E"/>
<path d="M144.931 172.73C144.824 173.053 144.716 173.375 144.716 173.697L144.824 171.764L144.931 172.623V172.73C145.038 172.623 144.931 172.73 144.931 172.73ZM144.931 172.73C144.931 172.623 144.824 172.731 144.824 172.838L144.931 172.945L144.824 173.804L144.931 171.872C144.824 172.086 144.931 172.408 144.931 172.73Z" fill="#FFFFDB"/>
<path d="M137.416 226.841C137.416 226.841 138.382 226.089 138.382 225.66C138.382 225.23 137.953 224.586 137.953 224.586C137.953 224.586 140.637 221.58 140.959 220.292C141.281 219.003 140.207 216.963 140.207 216.963L136.664 218.037L135.483 223.19L133.766 224.693L137.416 226.841Z" fill="#C4552D"/>
<path d="M157.814 185.077L159.318 187.439C159.318 187.439 163.934 186.902 166.189 186.043C168.443 185.292 168.443 185.292 168.443 185.292V184.433L157.814 185.077Z" fill="#3F0800"/>
<path d="M188.09 171.55C188.09 175.307 183.796 179.065 179.501 181.319C175.207 183.574 164.149 185.506 158.351 185.506C152.661 185.506 141.388 167.899 141.388 167.899C141.388 167.899 139.133 160.813 139.348 157.485C139.348 157.056 139.456 156.626 139.563 156.412C139.778 155.982 140.314 155.231 141.281 154.372C142.891 152.761 145.682 150.829 148.689 148.896C152.876 146.32 157.707 144.065 161.142 144.065C164.578 144.065 169.195 144.817 173.06 145.675C177.354 146.642 180.897 147.715 181.219 148.037C182.185 149.004 183.044 150.614 183.688 152.654C184.977 156.412 185.621 161.565 185.191 166.504C185.191 166.396 188.09 168.543 188.09 171.55Z" fill="url(#paint26_linear_3_29375)"/>
<path d="M179.608 181.212C175.314 183.467 164.256 185.399 158.458 185.399C152.768 185.399 141.495 167.792 141.495 167.792C141.495 167.792 139.241 160.706 139.455 157.378L141.28 154.264L144.179 149.433L148.688 148.896L173.059 145.675C177.354 146.642 180.897 147.715 181.219 148.037C182.185 149.004 183.044 150.614 183.688 152.654C181.756 151.902 177.891 151.151 170.053 152.547C157.385 154.909 151.158 159.954 150.406 164.142C149.547 168.329 152.875 180.46 159.961 182.822C166.832 185.184 178.964 181.427 179.608 181.212Z" fill="#E1784E"/>
<path d="M171.342 179.709C171.342 179.709 175.744 180.031 177.032 180.031C179.931 179.816 182.186 177.669 182.723 177.24C183.259 176.703 183.152 175.844 183.152 175.844C183.152 175.844 176.603 178.635 176.066 178.85C175.529 179.172 171.45 179.494 171.45 179.494V179.709H171.342Z" fill="#3F0800"/>
<path d="M176.817 178.421C176.817 178.421 177.783 178.85 178.428 178.85C179.072 178.85 181.112 177.776 181.541 177.347C181.97 176.918 182.4 176.059 182.4 176.059L176.817 178.421Z" fill="#FFF6D6"/>
<path d="M168.873 171.55L168.765 171.764C168.765 171.764 167.477 171.979 165.867 172.408C165.115 172.623 164.256 172.838 163.505 173.16C162.861 173.375 162.216 173.589 161.787 173.804C161.035 174.019 160.499 174.234 160.284 174.341C159.854 174.126 159.425 173.804 158.996 173.375C158.029 172.408 157.278 171.335 156.956 170.154C156.419 168.221 156.741 166.181 158.137 164.678C158.351 164.464 158.673 164.249 158.888 164.034C161.143 162.424 164.471 162.639 166.94 164.893C168.873 166.611 169.624 169.295 168.873 171.55Z" fill="#FFF6D6"/>
<path d="M163.075 172.945C161.358 172.73 161.143 173.375 159.64 173.267C155.345 170.798 155.882 163.712 160.713 163.068C166.403 162.424 168.443 170.691 163.075 172.945Z" fill="#3F0800"/>
<path d="M158.244 170.154C159.102 172.194 161.25 173.053 162.967 172.301C164.685 171.442 165.329 169.188 164.471 167.255C163.612 165.215 161.464 164.356 159.747 165.108C158.136 165.859 157.385 168.221 158.244 170.154Z" fill="#3F0800"/>
<path d="M165.544 169.402C165.974 169.724 166.51 169.724 166.94 169.295C167.262 168.865 167.262 168.329 166.833 167.899C166.403 167.577 165.866 167.577 165.437 168.007C165.115 168.436 165.115 169.08 165.544 169.402Z" fill="white"/>
<path d="M160.928 172.516C161.894 172.623 163.397 172.301 164.149 171.657C164.9 171.12 164.686 170.476 163.719 170.369C162.753 170.261 161.25 170.583 160.499 171.227C159.747 171.872 159.962 172.408 160.928 172.516Z" fill="white"/>
<path d="M169.087 169.295C169.087 169.295 166.511 165.645 161.679 165.859C157.17 166.074 157.063 170.261 157.063 170.261C157.063 170.261 155.023 165.43 160.069 163.068C166.081 160.169 168.443 167.148 168.765 167.577C169.087 168.007 169.087 169.295 169.087 169.295Z" fill="#F3DEE0"/>
<path d="M168.98 168.114C168.98 168.114 166.403 161.135 161.143 161.78C156.956 162.209 155.667 167.792 155.667 167.792C155.667 167.792 157.278 164.356 160.713 163.605C165.974 162.316 168.98 168.114 168.98 168.114Z" fill="#3F0800"/>
<path d="M184.655 165.967C184.547 166.181 184.547 166.396 184.44 166.718C183.366 166.826 182.507 166.933 181.756 167.148C181.219 167.255 180.897 167.362 180.575 167.362C180.36 167.362 180.145 167.47 180.038 167.47C179.931 167.362 179.931 167.255 179.823 167.148C179.716 167.04 179.716 166.933 179.609 166.826C179.609 166.718 179.501 166.718 179.501 166.611C178.32 164.249 178.428 160.813 179.716 158.988C180.038 158.559 180.36 158.237 180.682 158.129C181.863 157.485 183.259 158.129 184.118 159.955C185.084 161.672 185.191 164.034 184.655 165.967Z" fill="#FFF6D6"/>
<path d="M182.615 166.181C182.507 166.289 182.4 166.504 182.293 166.611C182.078 166.826 181.971 166.933 181.756 167.04C181.219 167.148 180.897 167.255 180.575 167.255C180.36 167.255 180.145 167.148 179.931 167.04C179.823 166.933 179.716 166.933 179.609 166.826C179.609 166.718 179.501 166.718 179.501 166.611C178.32 164.249 178.428 160.813 179.716 158.988C180.038 158.559 180.36 158.237 180.682 158.129C181.434 158.344 182.293 158.988 182.722 160.277C183.581 162.102 183.474 164.678 182.615 166.181Z" fill="#3F0800"/>
<path d="M182.078 165.537C181.326 166.611 180.145 166.396 179.394 164.893C178.642 163.39 178.75 161.35 179.501 160.277C180.253 159.203 181.434 159.418 182.185 160.921C182.829 162.316 182.829 164.356 182.078 165.537Z" fill="#3F0800"/>
<path d="M178.642 162.639C178.642 162.639 179.823 159.74 182.293 160.491C184.655 161.243 184.762 165 184.762 165C184.762 165 185.943 161.243 182.722 158.129C179.501 155.016 178.857 160.813 178.75 161.135C178.75 161.565 178.642 162.639 178.642 162.639Z" fill="#F3DEE0"/>
<path d="M178.75 161.565C178.75 161.565 179.824 155.767 182.508 156.948C184.655 157.807 185.514 162.961 185.514 162.961C185.514 162.961 184.548 159.74 182.83 158.666C180.038 156.948 178.75 161.565 178.75 161.565Z" fill="#3F0800"/>
<path d="M182.83 164.464C183.045 164.678 183.367 164.786 183.581 164.678C183.796 164.464 183.903 164.142 183.796 163.927C183.581 163.712 183.259 163.605 183.045 163.712C182.722 163.819 182.722 164.142 182.83 164.464Z" fill="white"/>
<path d="M177.998 171.335C177.891 171.013 178.857 170.583 180.038 170.154C181.219 169.832 182.293 169.724 182.4 169.939C182.507 170.261 181.541 170.691 180.36 171.12C179.179 171.442 178.106 171.55 177.998 171.335Z" fill="white"/>
<path d="M176.388 171.657C176.281 171.442 176.603 171.12 176.925 171.013C177.247 170.905 177.676 171.013 177.676 171.227C177.784 171.442 177.462 171.764 177.14 171.872C176.817 171.979 176.388 171.872 176.388 171.657Z" fill="white"/>
<path d="M168.873 171.55L168.765 171.764C168.765 171.764 167.477 171.979 165.866 172.408C165.115 172.623 164.256 172.838 163.504 173.16C162.86 173.375 162.216 173.589 161.787 173.804C161.035 174.019 160.498 174.234 160.284 174.341C160.069 174.448 159.962 174.448 159.962 174.448C159.962 174.448 158.566 174.234 158.029 173.697C158.029 173.697 158.351 173.589 158.995 173.375C159.21 173.267 159.425 173.267 159.747 173.16C160.606 172.945 161.894 172.623 163.612 172.301C164.793 172.086 165.759 171.872 166.511 171.872C168.228 171.55 168.873 171.55 168.873 171.55Z" fill="#3F0800"/>
<path d="M185.406 165.859C185.406 166.074 184.655 166.504 184.655 166.504C184.548 166.504 184.44 166.504 184.333 166.504C183.259 166.611 182.4 166.718 181.649 166.933C181.112 167.04 180.79 167.148 180.468 167.148C180.253 167.148 180.038 167.255 179.931 167.255C179.824 167.255 179.716 167.255 179.716 167.255L179.609 167.04C179.609 167.04 179.716 167.04 179.716 166.933C179.716 166.933 179.824 166.933 179.824 166.826C180.682 166.396 181.541 166.181 182.508 165.967C183.367 165.859 184.118 165.752 184.548 165.752C185.192 165.859 185.406 165.859 185.406 165.859Z" fill="#3F0800"/>
<path d="M154.271 162.316C154.271 162.316 157.17 154.694 161.25 151.795C161.25 151.795 162.431 154.157 161.464 155.016C160.713 155.875 156.526 158.022 154.271 162.316Z" fill="#3F0800"/>
<path d="M178.642 149.433C178.642 149.433 178.964 151.151 181.004 152.117C183.044 153.083 183.796 153.513 183.796 153.513V152.332C183.688 152.332 180.897 149.97 178.642 149.433Z" fill="#3F0800"/>
<path d="M170.698 179.065C170.698 179.065 173.274 179.065 174.241 179.065C175.207 179.065 182.83 175.629 183.259 175.2C183.688 174.77 184.869 172.623 184.869 172.623H185.192C185.192 172.623 183.903 174.985 183.474 175.415C183.044 175.844 175.958 178.85 174.885 179.28C173.811 179.709 170.268 179.28 170.268 179.28L170.698 179.065Z" fill="#3F0800"/>
<path d="M171.879 178.85C171.879 178.85 171.449 178.421 171.235 178.421C171.02 178.421 169.946 179.494 170.054 179.816C170.161 180.138 171.02 180.138 171.235 179.924C171.449 179.709 171.557 179.602 171.557 179.602L171.879 178.85Z" fill="#3F0800"/>
<path d="M174.563 173.804C174.563 173.804 175.315 173.375 176.818 173.375C178.213 173.375 181.112 172.945 183.689 171.55C183.689 171.55 182.508 173.16 181.005 173.911C179.502 174.663 176.925 173.911 176.173 173.911C175.529 173.911 175.1 174.019 174.563 173.804Z" fill="#E1784E"/>
<path d="M158.673 150.507L167.155 149.97C154.486 153.191 145.897 158.022 145.897 158.022C149.869 158.022 152.124 158.774 152.124 158.774C147.937 159.31 141.71 161.672 141.71 161.672C141.71 161.672 143.213 162.853 145.468 165C147.722 167.255 149.225 173.482 149.225 173.482C145.79 171.979 141.495 172.945 141.495 172.945C141.495 172.945 133.014 165.108 133.014 163.82C133.014 163.605 133.014 163.068 133.014 162.316C133.121 158.559 133.873 148.789 139.563 144.387C146.434 139.126 160.713 133.222 160.713 133.222L158.029 136.764C158.029 136.764 161.679 136.55 169.087 137.623C172.308 138.053 175.314 139.449 177.676 140.737C180.789 142.562 182.937 144.387 182.937 144.387L180.253 143.636L184.01 148.682C170.697 147.608 158.673 150.507 158.673 150.507Z" fill="#611B08"/>
<path d="M180.253 166.181C180.897 166.396 181.756 166.181 182.185 165.645C182.615 165.108 182.4 164.571 181.756 164.356C181.112 164.142 180.253 164.356 179.824 164.893C179.394 165.323 179.609 165.967 180.253 166.181Z" fill="white"/>
<path d="M144.931 172.73C144.931 172.73 137.738 171.657 135.268 175.844C132.799 180.031 139.026 185.399 145.36 185.399C151.695 185.399 151.802 181.212 151.802 181.212C151.802 181.212 145.575 173.375 144.931 172.73Z" fill="#E1784E"/>
<path d="M148.581 177.132C148.581 177.132 140.315 176.166 137.953 177.991C136.127 179.387 139.456 182.286 139.456 182.286C139.456 182.286 137.308 178.85 138.275 178.528C139.241 178.206 148.581 178.528 148.581 178.528C148.581 178.528 149.118 177.669 148.581 177.132Z" fill="#C4552D"/>
<path d="M147.937 177.884C147.937 177.884 148.796 180.031 148.474 181.319C148.259 182.608 143.75 183.252 143.75 183.252C143.75 183.252 147.293 181.964 147.293 181.319C147.293 180.783 146.649 178.313 146.649 178.313L147.937 177.884Z" fill="#C4552D"/>
<path d="M134.195 153.405C134.195 153.405 139.885 143.958 148.796 140.844C157.707 137.731 168.229 137.623 168.229 137.623L169.732 137.838C169.732 137.838 155.238 139.234 148.796 141.596C139.456 144.817 134.195 153.405 134.195 153.405Z" fill="#511B08"/>
<path d="M134.195 153.405C134.195 153.405 142.677 145.246 152.554 143.958C162.538 142.669 175.314 148.467 175.314 148.467H173.704C173.704 148.467 160.499 143.85 152.339 144.494C143.858 145.139 134.195 153.405 134.195 153.405Z" fill="#511B08"/>
<path opacity="0.41" d="M158.673 150.507L167.155 149.97C154.486 153.191 145.897 158.022 145.897 158.022C149.87 158.022 152.124 158.774 152.124 158.774C147.937 159.31 141.71 161.672 141.71 161.672C141.71 161.672 143.213 162.853 145.468 165C147.722 167.255 149.225 173.482 149.225 173.482C145.79 171.979 140.959 172.516 140.959 172.516C140.959 172.516 132.906 165.108 132.906 163.82C132.906 163.605 132.906 163.068 132.906 162.316C134.732 161.672 138.275 160.062 143.75 156.948C151.802 152.332 165.544 146.427 171.342 145.139C174.67 144.387 176.603 142.347 177.676 140.737C180.79 142.562 182.937 144.387 182.937 144.387L180.253 143.636L184.01 148.682C170.698 147.608 158.673 150.507 158.673 150.507Z" fill="#992E0E"/>
<path d="M150.514 196.779C150.514 196.779 143.213 207.945 139.456 211.703C135.698 215.46 133.98 217.822 133.336 219.647C132.585 221.472 132.585 223.62 132.585 224.479C132.585 225.337 135.591 227.592 136.664 227.27C137.845 226.948 137.523 225.874 136.987 225.445C136.557 225.015 135.054 224.479 135.054 224.479C135.054 224.479 137.094 222.868 137.738 221.687C138.382 220.399 138.06 218.574 137.631 218.144C137.523 218.037 139.456 218.037 140.529 217.071C143.965 213.528 151.051 205.476 151.91 204.617C153.091 203.436 152.017 198.282 150.514 196.779Z" fill="#E1784E"/>
<path d="M140.637 218.788L139.563 223.19C139.563 223.19 154.379 231.672 168.014 226.304C178.428 222.224 178.75 218.037 178.75 218.037L140.637 218.788Z" fill="#4C0002"/>
<path d="M148.688 199.571L152.446 204.509L153.842 203.221L149.869 197.746L148.688 199.571Z" fill="#3F0800"/>
<path d="M157.814 188.083C157.814 188.083 156.096 189.049 153.949 191.089C151.802 193.129 148.581 196.779 148.581 196.779C148.581 196.779 149.869 198.282 151.05 199.893C152.231 201.396 152.339 204.509 152.339 204.509L154.379 204.08L157.814 188.083Z" fill="#60609A"/>
<path d="M180.145 206.979V206.871C180.145 207.086 180.145 207.408 180.145 207.623C180.145 207.945 180.145 208.267 180.145 208.589C180.145 208.911 180.145 209.233 180.145 209.555C180.145 214.065 179.823 215.675 179.823 216.641C179.823 217.178 177.139 220.506 171.449 222.653C166.188 224.693 158.458 225.767 147.83 222.761C145.253 222.009 139.777 218.252 140.1 217.5C140.422 216.641 141.173 214.494 144.179 211.488C147.507 208.16 149.869 204.724 150.192 204.402C150.514 204.08 152.661 203.543 152.661 203.543C152.661 203.543 152.768 195.921 153.412 193.666C153.52 193.344 153.627 193.129 153.734 192.807C153.734 192.7 153.842 192.592 153.842 192.485C155.023 190.338 157.599 187.868 157.599 187.868V186.365C159.961 186.902 165.544 185.721 167.047 185.292C168.121 184.97 170.053 184.755 172.308 184.862C173.167 184.862 174.026 184.862 174.885 184.97C179.501 185.292 185.191 190.982 190.559 198.39C190.345 201.933 180.145 206.979 180.145 206.979Z" fill="#B393FF"/>
<path d="M172.416 184.97C171.127 185.292 169.732 185.829 168.443 186.473C165.33 187.976 157.17 193.022 153.842 193.022C153.842 192.914 153.949 192.807 153.949 192.7C155.13 190.552 157.707 188.083 157.707 188.083V186.58C160.069 187.117 165.652 185.936 167.155 185.506C168.228 185.077 170.161 184.862 172.416 184.97Z" fill="#A077FF"/>
<path d="M150.299 204.509C150.299 204.509 155.989 205.798 163.504 204.402C163.504 204.402 154.486 204.402 152.768 203.651C152.768 203.758 150.299 204.295 150.299 204.509Z" fill="#A077FF"/>
<path d="M152.983 210.307C152.983 210.307 166.403 208.589 171.342 200.322C171.342 200.322 169.195 210.307 152.983 210.307Z" fill="#A077FF"/>
<path d="M180.253 208.697C180.253 209.019 180.253 209.341 180.253 209.663C180.253 214.172 179.931 215.782 179.931 216.749C179.931 217.285 177.247 220.614 171.557 222.761C175.529 217.285 174.992 212.132 174.885 211.703L177.784 218.788C177.784 218.788 180.038 212.454 179.716 208.052C179.394 203.758 177.139 196.779 176.925 196.35L177.891 197.424C178.106 198.497 180.038 203.328 180.253 207.73C180.146 208.052 180.253 208.374 180.253 208.697Z" fill="#A077FF"/>
<path d="M179.931 215.568L183.259 214.172L179.931 214.601V215.568Z" fill="#4C0002"/>
<path d="M150.728 223.512C150.728 223.512 151.158 229.847 152.983 231.672C152.983 231.672 151.158 227.27 151.695 223.727L150.728 223.512Z" fill="#4C0002"/>
<defs>
<linearGradient id="paint0_linear_3_29375" x1="187.203" y1="163.94" x2="187.203" y2="113.755" gradientUnits="userSpaceOnUse">
<stop stop-color="#1F7C93"/>
<stop offset="1" stop-color="#36C98E"/>
</linearGradient>
<linearGradient id="paint1_linear_3_29375" x1="191.631" y1="163.606" x2="191.631" y2="104.821" gradientUnits="userSpaceOnUse">
<stop stop-color="#F00045"/>
<stop offset="1" stop-color="#F8753B"/>
</linearGradient>
<linearGradient id="paint2_linear_3_29375" x1="180.125" y1="163.606" x2="180.125" y2="111.258" gradientUnits="userSpaceOnUse">
<stop stop-color="#F675A1"/>
<stop offset="1" stop-color="#FA9366"/>
</linearGradient>
<linearGradient id="paint3_linear_3_29375" x1="192.85" y1="163.606" x2="192.85" y2="111.258" gradientUnits="userSpaceOnUse">
<stop/>
<stop offset="1" stop-color="#595639"/>
</linearGradient>
<linearGradient id="paint4_linear_3_29375" x1="166.088" y1="141.514" x2="166.088" y2="117.698" gradientUnits="userSpaceOnUse">
<stop/>
<stop offset="1" stop-color="#595639"/>
</linearGradient>
<linearGradient id="paint5_linear_3_29375" x1="177.381" y1="163.94" x2="177.381" y2="119.251" gradientUnits="userSpaceOnUse">
<stop stop-color="#1FEDCF"/>
<stop offset="1" stop-color="#A4F9A9"/>
</linearGradient>
<linearGradient id="paint6_linear_3_29375" x1="187.862" y1="163.858" x2="187.862" y2="119.169" gradientUnits="userSpaceOnUse">
<stop/>
<stop offset="1" stop-color="#595639"/>
</linearGradient>
<linearGradient id="paint7_linear_3_29375" x1="164.715" y1="144.998" x2="164.715" y2="124.748" gradientUnits="userSpaceOnUse">
<stop/>
<stop offset="1" stop-color="#595639"/>
</linearGradient>
<linearGradient id="paint8_linear_3_29375" x1="171.636" y1="173.731" x2="171.636" y2="131.605" gradientUnits="userSpaceOnUse">
<stop offset="0.0793651" stop-color="#9D006A"/>
<stop offset="1" stop-color="#F4618D"/>
</linearGradient>
<linearGradient id="paint9_linear_3_29375" x1="152.492" y1="157.899" x2="152.492" y2="141.245" gradientUnits="userSpaceOnUse">
<stop stop-color="#39223B"/>
<stop offset="1" stop-color="#773B64"/>
</linearGradient>
<linearGradient id="paint10_linear_3_29375" x1="183.67" y1="154.974" x2="158.285" y2="154.974" gradientUnits="userSpaceOnUse">
<stop/>
<stop offset="1" stop-color="#595639"/>
</linearGradient>
<linearGradient id="paint11_linear_3_29375" x1="158.703" y1="149.633" x2="145.21" y2="149.633" gradientUnits="userSpaceOnUse">
<stop/>
<stop offset="1" stop-color="#595639"/>
</linearGradient>
<linearGradient id="paint12_linear_3_29375" x1="123.402" y1="193.041" x2="114.885" y2="120.99" gradientUnits="userSpaceOnUse">
<stop stop-color="#FCCCAE"/>
<stop offset="1" stop-color="#EC876B"/>
</linearGradient>
<linearGradient id="paint13_linear_3_29375" x1="107.002" y1="62.989" x2="102.319" y2="23.3716" gradientUnits="userSpaceOnUse">
<stop stop-color="#FCCCAE"/>
<stop offset="1" stop-color="#EC876B"/>
</linearGradient>
<linearGradient id="paint14_linear_3_29375" x1="112.758" y1="194.864" x2="112.758" y2="136.473" gradientUnits="userSpaceOnUse">
<stop stop-color="#FCCCAE"/>
<stop offset="1" stop-color="#EC876B"/>
</linearGradient>
<linearGradient id="paint15_linear_3_29375" x1="115.349" y1="120.071" x2="108.932" y2="65.7849" gradientUnits="userSpaceOnUse">
<stop stop-color="#FCCCAE"/>
<stop offset="1" stop-color="#EC876B"/>
</linearGradient>
<linearGradient id="paint16_linear_3_29375" x1="101.252" y1="182.478" x2="101.252" y2="117.638" gradientUnits="userSpaceOnUse">
<stop stop-color="#433463"/>
<stop offset="1" stop-color="#636695"/>
</linearGradient>
<linearGradient id="paint17_linear_3_29375" x1="254.093" y1="182.503" x2="200.11" y2="182.503" gradientUnits="userSpaceOnUse">
<stop stop-color="#369568"/>
<stop offset="1" stop-color="#1F525F"/>
</linearGradient>
<linearGradient id="paint18_linear_3_29375" x1="261.917" y1="190.9" x2="207.934" y2="190.9" gradientUnits="userSpaceOnUse">
<stop stop-color="#1F7C93"/>
<stop offset="1" stop-color="#36C98E"/>
</linearGradient>
<linearGradient id="paint19_linear_3_29375" x1="261.916" y1="190.883" x2="207.934" y2="190.883" gradientUnits="userSpaceOnUse">
<stop stop-color="#45C9C7"/>
<stop offset="1" stop-color="#00CCCD"/>
</linearGradient>
<linearGradient id="paint20_linear_3_29375" x1="261.516" y1="197.791" x2="261.516" y2="175.315" gradientUnits="userSpaceOnUse">
<stop stop-color="#D71F27"/>
<stop offset="1" stop-color="#A00031"/>
</linearGradient>
<linearGradient id="paint21_linear_3_29375" x1="278.585" y1="150.777" x2="264.589" y2="150.777" gradientUnits="userSpaceOnUse">
<stop stop-color="#39223B"/>
<stop offset="1" stop-color="#773B64"/>
</linearGradient>
<linearGradient id="paint22_linear_3_29375" x1="271.026" y1="162.263" x2="271.026" y2="147.967" gradientUnits="userSpaceOnUse">
<stop stop-color="#F4618D"/>
<stop offset="0.9206" stop-color="#9D006A"/>
</linearGradient>
<linearGradient id="paint23_linear_3_29375" x1="263.964" y1="148.109" x2="279.347" y2="148.109" gradientUnits="userSpaceOnUse">
<stop offset="0.0793651" stop-color="#9D006A"/>
<stop offset="1" stop-color="#F4618D"/>
</linearGradient>
<linearGradient id="paint24_linear_3_29375" x1="254.527" y1="140.132" x2="263.841" y2="134.208" gradientUnits="userSpaceOnUse">
<stop stop-color="#D71F27"/>
<stop offset="1" stop-color="#A00031"/>
</linearGradient>
<linearGradient id="paint25_linear_3_29375" x1="190.913" y1="196.197" x2="190.329" y2="228.497" gradientUnits="userSpaceOnUse">
<stop stop-color="#FDC38B"/>
<stop offset="1" stop-color="#FDA37D"/>
</linearGradient>
<linearGradient id="paint26_linear_3_29375" x1="139.445" y1="164.693" x2="188.127" y2="164.693" gradientUnits="userSpaceOnUse">
<stop stop-color="#FDC38B"/>
<stop offset="1" stop-color="#FDA37D"/>
</linearGradient>
</defs>
</svg>
